<svg xmlns="http://www.w3.org/2000/svg" xmlns:xlink="http://www.w3.org/1999/xlink" width="476.52" height="565.471" viewBox="0 0 476.52 565.471">
  <defs>
    <clipPath id="clip-path">
      <rect id="Rectángulo_36476" data-name="Rectángulo 36476" width="40" height="40" transform="translate(674 1767)" fill="#12263f"/>
    </clipPath>
    <clipPath id="clip-path-2">
      <rect id="Rectángulo_36479" data-name="Rectángulo 36479" width="40" height="40" transform="translate(674 1984)" fill="#fff"/>
    </clipPath>
    <clipPath id="clip-path-3">
      <rect id="Rectángulo_36477" data-name="Rectángulo 36477" width="40" height="40" transform="translate(896 1767)" fill="#fff"/>
    </clipPath>
    <clipPath id="clip-path-4">
      <rect id="Rectángulo_36478" data-name="Rectángulo 36478" width="40" height="40" transform="translate(896 1984)" fill="#12263f"/>
    </clipPath>
  </defs>
  <g id="Grupo_119015" data-name="Grupo 119015" transform="translate(-562 -1688)">
    <g id="Grupo_110735" data-name="Grupo 110735" transform="translate(0 48)">
      <g id="Grupo_110734" data-name="Grupo 110734" transform="translate(-2593.751 565.601)">
        <path id="Trazado_157123" data-name="Trazado 157123" d="M3394.011,1074.4v282.729h-238.26V1181.838C3240.711,1164.7,3344.061,1124.131,3394.011,1074.4Z" fill="#ffc967"/>
        <path id="Trazado_157124" data-name="Trazado 157124" d="M3632.271,1204.135v120.088q-.135,15.308-.34,32.906h-237.92V1074.4c48.96,50.978,153.18,93.306,237.91,112.09C3631.9,1188.34,3632.081,1193.087,3632.271,1204.135Z" fill="#ff6d60"/>
        <path id="Trazado_157125" data-name="Trazado 157125" d="M3631.931,1312.659c0,.309-.01.629-.01.938-2.14,182.209-210.13,269.961-237.91,281.8V1312.659Z" transform="translate(0 44.47)" fill="#ffa648"/>
        <path id="Trazado_157126" data-name="Trazado 157126" d="M3394.011,1312.659V1595.4c-27.19-13.219-222.39-95.976-238.26-261.916v-20.826Z" transform="translate(0 44.47)" fill="#373660"/>
      </g>
      <path id="Trazado_162053" data-name="Trazado 162053" d="M-75.81,0l2.224-12.8,3.99.009a5.293,5.293,0,0,1,3.34.905A2.8,2.8,0,0,1-65.246-9.36a3.223,3.223,0,0,1-2.241,2.839,2.15,2.15,0,0,1,1.187.989,2.959,2.959,0,0,1,.36,1.709,3.7,3.7,0,0,1-1.419,2.817A5.629,5.629,0,0,1-70.9,0Zm3.551-5.572-.606,3.454,2.03.009a2.618,2.618,0,0,0,1.591-.47,1.866,1.866,0,0,0,.765-1.27A1.577,1.577,0,0,0-68.7-5.084a1.427,1.427,0,0,0-1.138-.479Zm.316-1.863,1.749.018a2.785,2.785,0,0,0,1.6-.457A1.772,1.772,0,0,0-67.856-9.1q.22-1.547-1.626-1.556l-1.9-.009ZM-59.234,0a2.566,2.566,0,0,1-.1-.861A3.221,3.221,0,0,1-61.756.176a2.919,2.919,0,0,1-2.07-.813A2.46,2.46,0,0,1-64.6-2.6,2.843,2.843,0,0,1-63.29-4.988a5.924,5.924,0,0,1,3.335-.831l1.16.018.123-.571a1.984,1.984,0,0,0,.026-.554.952.952,0,0,0-.312-.646,1.075,1.075,0,0,0-.708-.242,1.514,1.514,0,0,0-.984.286,1.384,1.384,0,0,0-.519.875l-2.487.009A2.764,2.764,0,0,1-62.4-8.855a4.851,4.851,0,0,1,2.94-.831,3.507,3.507,0,0,1,2.531.962,2.816,2.816,0,0,1,.765,2.386L-56.9-1.784l-.044.563a2.714,2.714,0,0,0,.149,1.055L-56.8,0Zm-1.907-1.749a2.27,2.27,0,0,0,1.872-.932l.308-1.644-.861-.009A2.406,2.406,0,0,0-61.8-3.5a1.454,1.454,0,0,0-.272.712.844.844,0,0,0,.2.751A1,1,0,0,0-61.141-1.749Zm10.02-.114a1.628,1.628,0,0,0,1.143-.374,1.836,1.836,0,0,0,.6-1.042l2.329-.009a3.416,3.416,0,0,1-.628,1.8A3.818,3.818,0,0,1-49.192-.237a4.327,4.327,0,0,1-1.991.422,3.514,3.514,0,0,1-2.742-1.2A4.461,4.461,0,0,1-54.9-4.122l.026-.483.009-.1A5.945,5.945,0,0,1-53.3-8.38a4.231,4.231,0,0,1,3.278-1.305,3.428,3.428,0,0,1,2.553,1.05,3.71,3.71,0,0,1,.927,2.676h-2.312a1.947,1.947,0,0,0-.334-1.2,1.269,1.269,0,0,0-1-.475q-1.775-.053-2.153,2.593a8.755,8.755,0,0,0-.1,1.617Q-52.352-1.89-51.122-1.863Zm9.141-1.925-1.151,1L-43.616,0h-2.479l2.338-13.5h2.487l-1.283,7.33.483-.519,2.821-2.821h3.182l-4.157,4.087L-37.578,0h-2.716Zm11.188,2.8A3.283,3.283,0,0,1-33.412.176a2.443,2.443,0,0,1-2.074-.984,3.6,3.6,0,0,1-.545-2.549L-35-9.51h2.479L-33.57-3.324a2.446,2.446,0,0,0-.009.545.9.9,0,0,0,.976.906A2.265,2.265,0,0,0-30.7-2.761l1.187-6.749h2.5L-28.666,0h-2.312Zm13.1-3.744a7.854,7.854,0,0,1-.782,2.654A4.3,4.3,0,0,1-19.956-.352a3.44,3.44,0,0,1-1.969.536A2.745,2.745,0,0,1-24.1-.844l-.87,4.5h-2.479L-25.176-9.51l2.285-.009-.167.958a3.036,3.036,0,0,1,2.426-1.125A2.7,2.7,0,0,1-18.461-8.67a4.412,4.412,0,0,1,.826,2.659A10.274,10.274,0,0,1-17.688-4.729Zm-2.461-.18.053-.845a2.351,2.351,0,0,0-.312-1.356,1.12,1.12,0,0,0-.962-.519,2.046,2.046,0,0,0-1.784.915l-.712,3.926a1.387,1.387,0,0,0,1.4.924,1.789,1.789,0,0,0,1.494-.7A4.763,4.763,0,0,0-20.149-4.909ZM-7.1.176A4.668,4.668,0,0,1-10.5-1.107a4.561,4.561,0,0,1-1.314-3.419v-.246a5.745,5.745,0,0,1,.554-2.562,4.064,4.064,0,0,1,1.569-1.74,4.4,4.4,0,0,1,2.316-.611,3.947,3.947,0,0,1,3.072,1.23A5,5,0,0,1-3.186-4.966v1.037H-9.242A2.36,2.36,0,0,0-8.5-2.435a2.245,2.245,0,0,0,1.569.563A2.742,2.742,0,0,0-4.636-2.936l1.248,1.4A3.813,3.813,0,0,1-4.935-.277,5.075,5.075,0,0,1-7.1.176Zm-.29-7.813a1.587,1.587,0,0,0-1.226.512,2.651,2.651,0,0,0-.6,1.466h3.533v-.2a1.891,1.891,0,0,0-.457-1.311A1.638,1.638,0,0,0-7.387-7.638ZM.593-9.51l.079,1.1A3.32,3.32,0,0,1,3.406-9.686a2.759,2.759,0,0,1,2.25.888,4.142,4.142,0,0,1,.756,2.654V0H3.872V-6.082A1.648,1.648,0,0,0,3.52-7.255,1.574,1.574,0,0,0,2.351-7.62a1.747,1.747,0,0,0-1.608.914V0H-1.8V-9.51ZM15.5,0H12.951V-13.5H15.5Zm7.6,0a2.821,2.821,0,0,1-.255-.853,3.073,3.073,0,0,1-2.4,1.028,3.376,3.376,0,0,1-2.316-.809,2.6,2.6,0,0,1-.918-2.039,2.687,2.687,0,0,1,1.121-2.32,5.529,5.529,0,0,1,3.239-.817h1.169v-.545A1.567,1.567,0,0,0,22.4-7.409a1.331,1.331,0,0,0-1.068-.4,1.513,1.513,0,0,0-1.006.308,1.045,1.045,0,0,0-.365.844h-2.54a2.551,2.551,0,0,1,.51-1.529,3.37,3.37,0,0,1,1.441-1.1,5.253,5.253,0,0,1,2.092-.4,4.15,4.15,0,0,1,2.791.883,3.09,3.09,0,0,1,1.033,2.483V-2.2a4.546,4.546,0,0,0,.378,2.048V0ZM21-1.767a2.188,2.188,0,0,0,1.037-.25,1.645,1.645,0,0,0,.7-.672V-4.324h-.949q-1.907,0-2.03,1.318l-.009.149a1.017,1.017,0,0,0,.334.782A1.3,1.3,0,0,0,21-1.767ZM34.062-9.51l.079,1.1a3.32,3.32,0,0,1,2.733-1.274,2.759,2.759,0,0,1,2.25.888,4.142,4.142,0,0,1,.756,2.654V0H37.34V-6.082a1.648,1.648,0,0,0-.352-1.173A1.574,1.574,0,0,0,35.82-7.62a1.747,1.747,0,0,0-1.608.914V0h-2.54V-9.51ZM47.5-.967A3.185,3.185,0,0,1,44.9.176,3,3,0,0,1,42.565-.7a3.752,3.752,0,0,1-.822-2.575V-9.51h2.54v6.151q0,1.487,1.354,1.487a1.834,1.834,0,0,0,1.775-.9V-9.51h2.549V0H47.571Zm12.946-3.7A5.758,5.758,0,0,1,59.471-1.1,3.231,3.231,0,0,1,56.747.176a2.969,2.969,0,0,1-2.47-1.187L54.163,0H51.877V-13.5h2.54v4.843a2.893,2.893,0,0,1,2.312-1.028,3.258,3.258,0,0,1,2.729,1.279,5.767,5.767,0,0,1,.989,3.6Zm-2.54-.185a3.783,3.783,0,0,0-.457-2.1,1.545,1.545,0,0,0-1.362-.664,1.676,1.676,0,0,0-1.67.993v3.753a1.7,1.7,0,0,0,1.688,1,1.568,1.568,0,0,0,1.617-1.213A6.257,6.257,0,0,0,57.907-4.852ZM66.388.176a4.668,4.668,0,0,1-3.406-1.283,4.561,4.561,0,0,1-1.314-3.419v-.246a5.745,5.745,0,0,1,.554-2.562,4.064,4.064,0,0,1,1.569-1.74,4.4,4.4,0,0,1,2.316-.611,3.947,3.947,0,0,1,3.072,1.23A5,5,0,0,1,70.3-4.966v1.037H64.244a2.36,2.36,0,0,0,.743,1.494,2.245,2.245,0,0,0,1.569.563,2.742,2.742,0,0,0,2.294-1.063l1.248,1.4A3.813,3.813,0,0,1,68.55-.277,5.075,5.075,0,0,1,66.388.176ZM66.1-7.638a1.587,1.587,0,0,0-1.226.512,2.651,2.651,0,0,0-.6,1.466H67.8v-.2a1.891,1.891,0,0,0-.457-1.311A1.638,1.638,0,0,0,66.1-7.638Zm5.774,6.39a1.279,1.279,0,0,1,.409-.984,1.45,1.45,0,0,1,1.024-.378,1.462,1.462,0,0,1,1.033.378,1.279,1.279,0,0,1,.409.984,1.261,1.261,0,0,1-.4.971A1.468,1.468,0,0,1,73.305.1a1.456,1.456,0,0,1-1.028-.374A1.261,1.261,0,0,1,71.873-1.248Z" transform="translate(694 1828)" fill="#12263f"/>
      <path id="Trazado_162057" data-name="Trazado 162057" d="M33.7,14.737a4.528,4.528,0,0,1-1.525,3.252,5.355,5.355,0,0,1-3.625,1.187,4.816,4.816,0,0,1-3.872-1.657,6.793,6.793,0,0,1-1.411-4.548v-.782a7.671,7.671,0,0,1,.65-3.252,4.874,4.874,0,0,1,1.859-2.158,5.207,5.207,0,0,1,2.808-.751,5.217,5.217,0,0,1,3.568,1.187,4.866,4.866,0,0,1,1.564,3.331H31.083a2.673,2.673,0,0,0-.69-1.8,2.555,2.555,0,0,0-1.806-.558,2.24,2.24,0,0,0-1.973.945,5.3,5.3,0,0,0-.672,2.931v.967a5.667,5.667,0,0,0,.628,3.032,2.2,2.2,0,0,0,1.982.958,2.6,2.6,0,0,0,1.824-.558,2.521,2.521,0,0,0,.69-1.727ZM40.778,19a2.821,2.821,0,0,1-.255-.853,3.073,3.073,0,0,1-2.4,1.028,3.376,3.376,0,0,1-2.316-.809,2.6,2.6,0,0,1-.918-2.039,2.687,2.687,0,0,1,1.121-2.32,5.529,5.529,0,0,1,3.239-.817h1.169v-.545a1.567,1.567,0,0,0-.338-1.055,1.331,1.331,0,0,0-1.068-.4A1.513,1.513,0,0,0,38,11.5a1.045,1.045,0,0,0-.365.844H35.1a2.551,2.551,0,0,1,.51-1.529,3.37,3.37,0,0,1,1.441-1.1,5.253,5.253,0,0,1,2.092-.4,4.15,4.15,0,0,1,2.791.883,3.09,3.09,0,0,1,1.033,2.483V16.8a4.546,4.546,0,0,0,.378,2.048V19Zm-2.1-1.767a2.188,2.188,0,0,0,1.037-.25,1.645,1.645,0,0,0,.7-.672V14.676h-.949q-1.907,0-2.03,1.318l-.009.149a1.017,1.017,0,0,0,.334.782A1.3,1.3,0,0,0,38.677,17.233Zm11.584-5.361a6.9,6.9,0,0,0-.914-.07,1.86,1.86,0,0,0-1.89.976V19h-2.54V9.49h2.4l.07,1.134a2.354,2.354,0,0,1,2.118-1.31,2.662,2.662,0,0,1,.791.114Zm9.782,2.461a5.7,5.7,0,0,1-1,3.52,3.2,3.2,0,0,1-2.694,1.323,2.963,2.963,0,0,1-2.329-1v4.482h-2.54V9.49h2.355l.088.932a2.985,2.985,0,0,1,2.408-1.107,3.22,3.22,0,0,1,2.733,1.3,5.858,5.858,0,0,1,.976,3.586Zm-2.54-.185a3.743,3.743,0,0,0-.47-2.048,1.532,1.532,0,0,0-1.367-.721,1.663,1.663,0,0,0-1.644.914v3.894a1.692,1.692,0,0,0,1.661.94Q57.5,17.128,57.5,14.148Zm8.49,5.027a4.668,4.668,0,0,1-3.406-1.283,4.561,4.561,0,0,1-1.314-3.419v-.246a5.745,5.745,0,0,1,.554-2.562A4.064,4.064,0,0,1,63.4,9.925a4.4,4.4,0,0,1,2.316-.611,3.947,3.947,0,0,1,3.072,1.23A5,5,0,0,1,69.9,14.034v1.037H63.849a2.36,2.36,0,0,0,.743,1.494,2.245,2.245,0,0,0,1.569.563,2.742,2.742,0,0,0,2.294-1.063l1.248,1.4a3.813,3.813,0,0,1-1.547,1.261A5.075,5.075,0,0,1,65.994,19.176Zm-.29-7.813a1.587,1.587,0,0,0-1.226.512,2.651,2.651,0,0,0-.6,1.466h3.533v-.2a1.891,1.891,0,0,0-.457-1.311A1.638,1.638,0,0,0,65.7,11.362Zm8.684-4.21V9.49h1.626v1.863H74.387V16.1a1.133,1.133,0,0,0,.2.756,1.015,1.015,0,0,0,.773.229,4.051,4.051,0,0,0,.747-.062v1.925a5.229,5.229,0,0,1-1.538.229,2.425,2.425,0,0,1-2.725-2.7V11.354H70.458V9.49h1.389V7.152ZM82.939,19a2.821,2.821,0,0,1-.255-.853,3.073,3.073,0,0,1-2.4,1.028,3.376,3.376,0,0,1-2.316-.809,2.6,2.6,0,0,1-.918-2.039,2.687,2.687,0,0,1,1.121-2.32,5.529,5.529,0,0,1,3.239-.817h1.169v-.545a1.567,1.567,0,0,0-.338-1.055,1.331,1.331,0,0,0-1.068-.4,1.513,1.513,0,0,0-1.006.308,1.045,1.045,0,0,0-.365.844h-2.54a2.551,2.551,0,0,1,.51-1.529,3.37,3.37,0,0,1,1.441-1.1,5.253,5.253,0,0,1,2.092-.4,4.15,4.15,0,0,1,2.791.883,3.09,3.09,0,0,1,1.033,2.483V16.8a4.546,4.546,0,0,0,.378,2.048V19Zm-2.1-1.767a2.188,2.188,0,0,0,1.037-.25,1.645,1.645,0,0,0,.7-.672V14.676h-.949q-1.907,0-2.03,1.318l-.009.149a1.017,1.017,0,0,0,.334.782A1.3,1.3,0,0,0,80.838,17.233Zm11.391-.861a.818.818,0,0,0-.461-.734,5.241,5.241,0,0,0-1.481-.479q-3.393-.712-3.393-2.883a2.613,2.613,0,0,1,1.05-2.114,4.237,4.237,0,0,1,2.747-.848,4.56,4.56,0,0,1,2.9.853,2.687,2.687,0,0,1,1.085,2.215h-2.54a1.229,1.229,0,0,0-.352-.9,1.488,1.488,0,0,0-1.1-.356,1.52,1.52,0,0,0-.993.29.916.916,0,0,0-.352.738.783.783,0,0,0,.4.681,4.114,4.114,0,0,0,1.349.448,11.019,11.019,0,0,1,1.6.426A2.628,2.628,0,0,1,94.7,16.267a2.481,2.481,0,0,1-1.116,2.1,4.815,4.815,0,0,1-2.883.8,5.029,5.029,0,0,1-2.123-.426,3.561,3.561,0,0,1-1.455-1.169,2.716,2.716,0,0,1-.527-1.6H89a1.326,1.326,0,0,0,.5,1.037,1.987,1.987,0,0,0,1.248.36,1.839,1.839,0,0,0,1.1-.277A.861.861,0,0,0,92.229,16.372Zm12.542.756a1.666,1.666,0,0,0,1.143-.387,1.355,1.355,0,0,0,.457-1.028h2.382a3.258,3.258,0,0,1-.527,1.771,3.48,3.48,0,0,1-1.419,1.248,4.442,4.442,0,0,1-1.991.444,4.129,4.129,0,0,1-3.217-1.3A5.13,5.13,0,0,1,100.42,14.3v-.167a5.071,5.071,0,0,1,1.169-3.507,4.08,4.08,0,0,1,3.208-1.31,4,4,0,0,1,2.861,1.015,3.594,3.594,0,0,1,1.094,2.7h-2.382a1.745,1.745,0,0,0-.457-1.206,1.7,1.7,0,0,0-2.5.183,3.749,3.749,0,0,0-.453,2.1v.264a3.8,3.8,0,0,0,.448,2.113A1.549,1.549,0,0,0,104.771,17.128Zm5.036-2.971a5.64,5.64,0,0,1,.545-2.522,3.989,3.989,0,0,1,1.569-1.714,4.577,4.577,0,0,1,2.377-.606,4.33,4.33,0,0,1,3.142,1.178,4.727,4.727,0,0,1,1.358,3.2l.018.65a4.97,4.97,0,0,1-1.222,3.511,4.735,4.735,0,0,1-6.561,0,5.058,5.058,0,0,1-1.226-3.586Zm2.54.18a3.555,3.555,0,0,0,.51,2.073,1.831,1.831,0,0,0,2.9.009,3.89,3.89,0,0,0,.519-2.267,3.519,3.519,0,0,0-.519-2.06,1.686,1.686,0,0,0-1.459-.731,1.658,1.658,0,0,0-1.441.726A3.955,3.955,0,0,0,112.347,14.338ZM122.718,9.49l.079,1.1a3.32,3.32,0,0,1,2.733-1.274,2.759,2.759,0,0,1,2.25.888,4.142,4.142,0,0,1,.756,2.654V19H126V12.918a1.648,1.648,0,0,0-.352-1.173,1.574,1.574,0,0,0-1.169-.365,1.747,1.747,0,0,0-1.608.914V19h-2.54V9.49ZM28.491,37.128a1.666,1.666,0,0,0,1.143-.387,1.355,1.355,0,0,0,.457-1.028h2.382a3.258,3.258,0,0,1-.527,1.771,3.48,3.48,0,0,1-1.419,1.248,4.442,4.442,0,0,1-1.991.444,4.129,4.129,0,0,1-3.217-1.3A5.13,5.13,0,0,1,24.14,34.3v-.167a5.071,5.071,0,0,1,1.169-3.507,4.08,4.08,0,0,1,3.208-1.31,4,4,0,0,1,2.861,1.015,3.594,3.594,0,0,1,1.094,2.7H30.09a1.745,1.745,0,0,0-.457-1.206,1.7,1.7,0,0,0-2.5.183,3.749,3.749,0,0,0-.453,2.1v.264a3.8,3.8,0,0,0,.448,2.113A1.549,1.549,0,0,0,28.491,37.128Zm5.036-2.971a5.64,5.64,0,0,1,.545-2.522,3.989,3.989,0,0,1,1.569-1.714,4.577,4.577,0,0,1,2.377-.606,4.33,4.33,0,0,1,3.142,1.178,4.727,4.727,0,0,1,1.358,3.2l.018.65a4.97,4.97,0,0,1-1.222,3.511,4.247,4.247,0,0,1-3.278,1.323,4.268,4.268,0,0,1-3.283-1.318,5.058,5.058,0,0,1-1.226-3.586Zm2.54.18a3.555,3.555,0,0,0,.51,2.073,1.831,1.831,0,0,0,2.9.009A3.89,3.89,0,0,0,40,34.153a3.519,3.519,0,0,0-.519-2.06,1.686,1.686,0,0,0-1.459-.731,1.658,1.658,0,0,0-1.441.726A3.955,3.955,0,0,0,36.067,34.338ZM46.438,29.49l.079,1.1a3.32,3.32,0,0,1,2.733-1.274,2.759,2.759,0,0,1,2.25.888,4.142,4.142,0,0,1,.756,2.654V39h-2.54V32.918a1.648,1.648,0,0,0-.352-1.173A1.574,1.574,0,0,0,48.2,31.38a1.747,1.747,0,0,0-1.608.914V39h-2.54V29.49Zm10.784-2.338V29.49h1.626v1.863H57.222V36.1a1.133,1.133,0,0,0,.2.756,1.015,1.015,0,0,0,.773.229,4.051,4.051,0,0,0,.747-.062v1.925a5.229,5.229,0,0,1-1.538.229,2.425,2.425,0,0,1-2.725-2.7V31.354H53.293V29.49h1.389V27.152Zm8.385,4.72a6.9,6.9,0,0,0-.914-.07,1.86,1.86,0,0,0-1.89.976V39h-2.54V29.49h2.4l.07,1.134a2.354,2.354,0,0,1,2.118-1.31,2.662,2.662,0,0,1,.791.114ZM72.076,39a2.821,2.821,0,0,1-.255-.853,3.073,3.073,0,0,1-2.4,1.028,3.376,3.376,0,0,1-2.316-.809,2.6,2.6,0,0,1-.918-2.039,2.687,2.687,0,0,1,1.121-2.32,5.529,5.529,0,0,1,3.239-.817h1.169v-.545a1.567,1.567,0,0,0-.338-1.055,1.331,1.331,0,0,0-1.068-.4A1.513,1.513,0,0,0,69.3,31.5a1.045,1.045,0,0,0-.365.844H66.4a2.551,2.551,0,0,1,.51-1.529,3.37,3.37,0,0,1,1.441-1.1,5.253,5.253,0,0,1,2.092-.4,4.15,4.15,0,0,1,2.791.883,3.09,3.09,0,0,1,1.033,2.483V36.8a4.546,4.546,0,0,0,.378,2.048V39Zm-2.1-1.767a2.188,2.188,0,0,0,1.037-.25,1.645,1.645,0,0,0,.7-.672V34.676h-.949q-1.907,0-2.03,1.318l-.009.149a1.017,1.017,0,0,0,.334.782A1.3,1.3,0,0,0,69.975,37.233Zm11.391-.861a.818.818,0,0,0-.461-.734,5.241,5.241,0,0,0-1.481-.479q-3.393-.712-3.393-2.883a2.613,2.613,0,0,1,1.05-2.114,4.237,4.237,0,0,1,2.747-.848,4.56,4.56,0,0,1,2.9.853,2.687,2.687,0,0,1,1.085,2.215h-2.54a1.229,1.229,0,0,0-.352-.9,1.488,1.488,0,0,0-1.1-.356,1.52,1.52,0,0,0-.993.29.916.916,0,0,0-.352.738.783.783,0,0,0,.4.681,4.114,4.114,0,0,0,1.349.448,11.019,11.019,0,0,1,1.6.426,2.628,2.628,0,0,1,2.013,2.558,2.481,2.481,0,0,1-1.116,2.1,4.815,4.815,0,0,1-2.883.8,5.029,5.029,0,0,1-2.123-.426,3.561,3.561,0,0,1-1.455-1.169,2.716,2.716,0,0,1-.527-1.6H78.14a1.326,1.326,0,0,0,.5,1.037,1.987,1.987,0,0,0,1.248.36,1.839,1.839,0,0,0,1.1-.277A.861.861,0,0,0,81.366,36.372Zm8.481,2.8a4.668,4.668,0,0,1-3.406-1.283,4.561,4.561,0,0,1-1.314-3.419v-.246a5.745,5.745,0,0,1,.554-2.562,4.064,4.064,0,0,1,1.569-1.74,4.4,4.4,0,0,1,2.316-.611,3.947,3.947,0,0,1,3.072,1.23,5,5,0,0,1,1.121,3.489v1.037H87.7a2.36,2.36,0,0,0,.743,1.494,2.245,2.245,0,0,0,1.569.563,2.742,2.742,0,0,0,2.294-1.063l1.248,1.4a3.813,3.813,0,0,1-1.547,1.261A5.075,5.075,0,0,1,89.847,39.176Zm-.29-7.813a1.587,1.587,0,0,0-1.226.512,2.651,2.651,0,0,0-.6,1.466h3.533v-.2a1.891,1.891,0,0,0-.457-1.311A1.638,1.638,0,0,0,89.557,31.362Zm7.98-1.872.079,1.1a3.32,3.32,0,0,1,2.733-1.274,2.759,2.759,0,0,1,2.25.888,4.142,4.142,0,0,1,.756,2.654V39h-2.54V32.918a1.648,1.648,0,0,0-.352-1.173A1.574,1.574,0,0,0,99.3,31.38a1.747,1.747,0,0,0-1.608.914V39h-2.54V29.49Zm5.045-3.876A2.46,2.46,0,0,1,102,27.28a1.8,1.8,0,0,1-1.415.672,2.146,2.146,0,0,1-.593-.075,3.981,3.981,0,0,1-.716-.321,3.864,3.864,0,0,0-.659-.3,1.611,1.611,0,0,0-.439-.057.7.7,0,0,0-.523.22.854.854,0,0,0-.215.624l-1.477-.088a2.5,2.5,0,0,1,.576-1.661,1.776,1.776,0,0,1,1.411-.686,1.816,1.816,0,0,1,.5.066,5.468,5.468,0,0,1,.76.321,4.941,4.941,0,0,0,.729.308,1.665,1.665,0,0,0,.422.053.741.741,0,0,0,.532-.215.819.819,0,0,0,.224-.62ZM110.792,39a2.821,2.821,0,0,1-.255-.853,3.073,3.073,0,0,1-2.4,1.028,3.376,3.376,0,0,1-2.316-.809,2.6,2.6,0,0,1-.918-2.039,2.687,2.687,0,0,1,1.121-2.32,5.529,5.529,0,0,1,3.239-.817h1.169v-.545a1.567,1.567,0,0,0-.338-1.055,1.331,1.331,0,0,0-1.068-.4,1.513,1.513,0,0,0-1.006.308,1.045,1.045,0,0,0-.365.844h-2.54a2.551,2.551,0,0,1,.51-1.529,3.37,3.37,0,0,1,1.441-1.1,5.253,5.253,0,0,1,2.092-.4,4.15,4.15,0,0,1,2.791.883,3.09,3.09,0,0,1,1.033,2.483V36.8a4.546,4.546,0,0,0,.378,2.048V39Zm-2.1-1.767a2.188,2.188,0,0,0,1.037-.25,1.645,1.645,0,0,0,.7-.672V34.676h-.949q-1.907,0-2.03,1.318l-.009.149a1.017,1.017,0,0,0,.334.782A1.3,1.3,0,0,0,108.691,37.233Zm11.391-.861a.818.818,0,0,0-.461-.734,5.241,5.241,0,0,0-1.481-.479q-3.393-.712-3.393-2.883a2.613,2.613,0,0,1,1.05-2.114,4.237,4.237,0,0,1,2.747-.848,4.56,4.56,0,0,1,2.9.853,2.687,2.687,0,0,1,1.085,2.215h-2.54a1.229,1.229,0,0,0-.352-.9,1.488,1.488,0,0,0-1.1-.356,1.52,1.52,0,0,0-.993.29.916.916,0,0,0-.352.738.783.783,0,0,0,.4.681,4.114,4.114,0,0,0,1.349.448,11.019,11.019,0,0,1,1.6.426,2.628,2.628,0,0,1,2.013,2.558,2.481,2.481,0,0,1-1.116,2.1,4.815,4.815,0,0,1-2.883.8,5.029,5.029,0,0,1-2.123-.426,3.561,3.561,0,0,1-1.455-1.169,2.716,2.716,0,0,1-.527-1.6h2.408a1.326,1.326,0,0,0,.5,1.037,1.987,1.987,0,0,0,1.248.36,1.839,1.839,0,0,0,1.1-.277A.861.861,0,0,0,120.082,36.372Zm4.236,1.38a1.279,1.279,0,0,1,.409-.984,1.588,1.588,0,0,1,2.057,0,1.279,1.279,0,0,1,.409.984,1.261,1.261,0,0,1-.4.971,1.614,1.614,0,0,1-2.065,0A1.261,1.261,0,0,1,124.318,37.752Z" transform="translate(840 2029)" fill="#12263f"/>
      <path id="Trazado_162054" data-name="Trazado 162054" d="M-69.4-4.263a4.528,4.528,0,0,1-1.525,3.252A5.355,5.355,0,0,1-74.553.176a4.816,4.816,0,0,1-3.872-1.657,6.793,6.793,0,0,1-1.411-4.548v-.782a7.671,7.671,0,0,1,.65-3.252,4.874,4.874,0,0,1,1.859-2.158,5.207,5.207,0,0,1,2.808-.751,5.217,5.217,0,0,1,3.568,1.187,4.866,4.866,0,0,1,1.564,3.331h-2.637a2.673,2.673,0,0,0-.69-1.8,2.555,2.555,0,0,0-1.806-.558,2.24,2.24,0,0,0-1.973.945,5.3,5.3,0,0,0-.672,2.931v.967a5.667,5.667,0,0,0,.628,3.032,2.2,2.2,0,0,0,1.982.958,2.6,2.6,0,0,0,1.824-.558,2.521,2.521,0,0,0,.69-1.727Zm1.169-.58a5.64,5.64,0,0,1,.545-2.522A3.989,3.989,0,0,1-66.12-9.079a4.577,4.577,0,0,1,2.377-.606A4.33,4.33,0,0,1-60.6-8.508a4.727,4.727,0,0,1,1.358,3.2l.018.65a4.97,4.97,0,0,1-1.222,3.511A4.247,4.247,0,0,1-63.725.176a4.268,4.268,0,0,1-3.283-1.318,5.058,5.058,0,0,1-1.226-3.586Zm2.54.18a3.555,3.555,0,0,0,.51,2.073,1.682,1.682,0,0,0,1.459.717,1.686,1.686,0,0,0,1.441-.709,3.89,3.89,0,0,0,.519-2.267,3.519,3.519,0,0,0-.519-2.06,1.686,1.686,0,0,0-1.459-.731,1.658,1.658,0,0,0-1.441.726A3.955,3.955,0,0,0-65.694-4.662Zm16.594,0a5.7,5.7,0,0,1-1,3.52A3.2,3.2,0,0,1-52.792.176a2.963,2.963,0,0,1-2.329-1V3.656h-2.54V-9.51h2.355l.088.932a2.985,2.985,0,0,1,2.408-1.107,3.22,3.22,0,0,1,2.733,1.3A5.858,5.858,0,0,1-49.1-4.8Zm-2.54-.185A3.743,3.743,0,0,0-52.11-6.9a1.532,1.532,0,0,0-1.367-.721,1.663,1.663,0,0,0-1.644.914v3.894a1.692,1.692,0,0,0,1.661.94Q-51.64-1.872-51.64-4.852ZM-44.846,0H-47.4V-9.51h2.549Zm-2.7-11.971a1.251,1.251,0,0,1,.382-.94,1.436,1.436,0,0,1,1.042-.369,1.44,1.44,0,0,1,1.037.369,1.244,1.244,0,0,1,.387.94,1.247,1.247,0,0,1-.391.949,1.443,1.443,0,0,1-1.033.369,1.443,1.443,0,0,1-1.033-.369A1.247,1.247,0,0,1-47.544-11.971ZM-37.244,0A2.821,2.821,0,0,1-37.5-.853,3.073,3.073,0,0,1-39.9.176a3.376,3.376,0,0,1-2.316-.809,2.6,2.6,0,0,1-.918-2.039,2.687,2.687,0,0,1,1.121-2.32,5.529,5.529,0,0,1,3.239-.817H-37.6v-.545a1.567,1.567,0,0,0-.338-1.055,1.331,1.331,0,0,0-1.068-.4,1.513,1.513,0,0,0-1.006.308,1.045,1.045,0,0,0-.365.844h-2.54a2.551,2.551,0,0,1,.51-1.529,3.37,3.37,0,0,1,1.441-1.1,5.253,5.253,0,0,1,2.092-.4,4.15,4.15,0,0,1,2.791.883,3.09,3.09,0,0,1,1.033,2.483V-2.2a4.546,4.546,0,0,0,.378,2.048V0Zm-2.1-1.767a2.188,2.188,0,0,0,1.037-.25,1.645,1.645,0,0,0,.7-.672V-4.324h-.949q-1.907,0-2.03,1.318l-.009.149a1.017,1.017,0,0,0,.334.782A1.3,1.3,0,0,0-39.344-1.767Zm10.327-3.059a5.731,5.731,0,0,1,1-3.542,3.237,3.237,0,0,1,2.729-1.318A2.913,2.913,0,0,1-23-8.648V-13.5h2.549V0h-2.294l-.123-1.011A2.989,2.989,0,0,1-25.308.176,3.228,3.228,0,0,1-28-1.147,5.916,5.916,0,0,1-29.017-4.825Zm2.54.189a3.754,3.754,0,0,0,.466,2.051,1.517,1.517,0,0,0,1.354.713A1.7,1.7,0,0,0-23-2.867V-6.625A1.675,1.675,0,0,0-24.64-7.62Q-26.477-7.62-26.477-4.636ZM-14.1.176a4.668,4.668,0,0,1-3.406-1.283,4.561,4.561,0,0,1-1.314-3.419v-.246a5.745,5.745,0,0,1,.554-2.562A4.064,4.064,0,0,1-16.7-9.075a4.4,4.4,0,0,1,2.316-.611,3.947,3.947,0,0,1,3.072,1.23,5,5,0,0,1,1.121,3.489v1.037h-6.056A2.36,2.36,0,0,0-15.5-2.435a2.245,2.245,0,0,0,1.569.563,2.742,2.742,0,0,0,2.294-1.063l1.248,1.4A3.813,3.813,0,0,1-11.94-.277,5.075,5.075,0,0,1-14.1.176Zm-.29-7.813a1.587,1.587,0,0,0-1.226.512,2.651,2.651,0,0,0-.6,1.466h3.533v-.2a1.891,1.891,0,0,0-.457-1.311A1.638,1.638,0,0,0-14.392-7.638ZM.883-2.628a.818.818,0,0,0-.461-.734,5.241,5.241,0,0,0-1.481-.479q-3.393-.712-3.393-2.883A2.613,2.613,0,0,1-3.4-8.837,4.237,4.237,0,0,1-.655-9.686a4.56,4.56,0,0,1,2.9.853A2.687,2.687,0,0,1,3.327-6.618H.787a1.229,1.229,0,0,0-.352-.9,1.488,1.488,0,0,0-1.1-.356,1.52,1.52,0,0,0-.993.29.916.916,0,0,0-.352.738.783.783,0,0,0,.4.681,4.114,4.114,0,0,0,1.349.448,11.019,11.019,0,0,1,1.6.426A2.628,2.628,0,0,1,3.353-2.733a2.481,2.481,0,0,1-1.116,2.1,4.815,4.815,0,0,1-2.883.8A5.029,5.029,0,0,1-2.769-.25,3.561,3.561,0,0,1-4.223-1.419a2.716,2.716,0,0,1-.527-1.6h2.408a1.326,1.326,0,0,0,.5,1.037,1.987,1.987,0,0,0,1.248.36A1.839,1.839,0,0,0,.51-1.9.861.861,0,0,0,.883-2.628ZM9.365.176A4.668,4.668,0,0,1,5.959-1.107,4.561,4.561,0,0,1,4.645-4.526v-.246A5.745,5.745,0,0,1,5.2-7.334a4.064,4.064,0,0,1,1.569-1.74,4.4,4.4,0,0,1,2.316-.611,3.947,3.947,0,0,1,3.072,1.23,5,5,0,0,1,1.121,3.489v1.037H7.22a2.36,2.36,0,0,0,.743,1.494,2.245,2.245,0,0,0,1.569.563,2.742,2.742,0,0,0,2.294-1.063l1.248,1.4A3.813,3.813,0,0,1,11.527-.277,5.075,5.075,0,0,1,9.365.176Zm-.29-7.813a1.587,1.587,0,0,0-1.226.512,2.651,2.651,0,0,0-.6,1.466H10.78v-.2a1.891,1.891,0,0,0-.457-1.311A1.638,1.638,0,0,0,9.075-7.638Zm5.273,2.813A5.573,5.573,0,0,1,15.39-8.35,3.375,3.375,0,0,1,18.2-9.686a2.96,2.96,0,0,1,2.435,1.072l.105-.9h2.3V-.316a4.064,4.064,0,0,1-.567,2.171,3.641,3.641,0,0,1-1.6,1.406,5.608,5.608,0,0,1-2.408.483,5.215,5.215,0,0,1-2.039-.417,3.619,3.619,0,0,1-1.5-1.077L16.053.7a2.975,2.975,0,0,0,2.3,1.063,2.178,2.178,0,0,0,1.573-.541,2.027,2.027,0,0,0,.563-1.534v-.51A2.938,2.938,0,0,1,18.18.176a3.366,3.366,0,0,1-2.773-1.34A5.572,5.572,0,0,1,14.348-4.72Zm2.54.189a3.47,3.47,0,0,0,.519,2.029,1.65,1.65,0,0,0,1.424.735,1.764,1.764,0,0,0,1.661-.871V-6.749a1.76,1.76,0,0,0-1.644-.871,1.66,1.66,0,0,0-1.437.748A3.911,3.911,0,0,0,16.888-4.636Zm13.8,3.669a3.185,3.185,0,0,1-2.6,1.143A3,3,0,0,1,25.752-.7a3.752,3.752,0,0,1-.822-2.575V-9.51h2.54v6.151q0,1.487,1.354,1.487a1.834,1.834,0,0,0,1.775-.9V-9.51h2.549V0H30.757Zm9.721-6.161a6.9,6.9,0,0,0-.914-.07,1.86,1.86,0,0,0-1.89.976V0h-2.54V-9.51h2.4l.07,1.134a2.354,2.354,0,0,1,2.118-1.31,2.662,2.662,0,0,1,.791.114ZM44.31,0H41.761V-9.51H44.31Zm-2.7-11.971a1.251,1.251,0,0,1,.382-.94,1.436,1.436,0,0,1,1.042-.369,1.44,1.44,0,0,1,1.037.369,1.244,1.244,0,0,1,.387.94,1.247,1.247,0,0,1-.391.949,1.443,1.443,0,0,1-1.033.369A1.443,1.443,0,0,1,42-11.021,1.247,1.247,0,0,1,41.612-11.971Zm4.395,7.146a5.731,5.731,0,0,1,1-3.542,3.237,3.237,0,0,1,2.729-1.318,2.913,2.913,0,0,1,2.294,1.037V-13.5h2.549V0H52.282l-.123-1.011A2.989,2.989,0,0,1,49.715.176a3.228,3.228,0,0,1-2.694-1.323A5.916,5.916,0,0,1,46.006-4.825Zm2.54.189a3.754,3.754,0,0,0,.466,2.051,1.517,1.517,0,0,0,1.354.713,1.7,1.7,0,0,0,1.661-.995V-6.625a1.675,1.675,0,0,0-1.644-.995Q48.546-7.62,48.546-4.636ZM62.055,0A2.821,2.821,0,0,1,61.8-.853,3.073,3.073,0,0,1,59.4.176a3.376,3.376,0,0,1-2.316-.809,2.6,2.6,0,0,1-.918-2.039,2.687,2.687,0,0,1,1.121-2.32,5.529,5.529,0,0,1,3.239-.817h1.169v-.545a1.567,1.567,0,0,0-.338-1.055,1.331,1.331,0,0,0-1.068-.4,1.513,1.513,0,0,0-1.006.308,1.045,1.045,0,0,0-.365.844h-2.54a2.551,2.551,0,0,1,.51-1.529,3.37,3.37,0,0,1,1.441-1.1,5.253,5.253,0,0,1,2.092-.4,4.15,4.15,0,0,1,2.791.883,3.09,3.09,0,0,1,1.033,2.483V-2.2a4.546,4.546,0,0,0,.378,2.048V0Zm-2.1-1.767a2.188,2.188,0,0,0,1.037-.25,1.645,1.645,0,0,0,.7-.672V-4.324h-.949q-1.907,0-2.03,1.318l-.009.149a1.017,1.017,0,0,0,.334.782A1.3,1.3,0,0,0,59.955-1.767ZM65.8-4.825a5.731,5.731,0,0,1,1-3.542,3.237,3.237,0,0,1,2.729-1.318A2.913,2.913,0,0,1,71.82-8.648V-13.5h2.549V0H72.075l-.123-1.011A2.989,2.989,0,0,1,69.508.176a3.228,3.228,0,0,1-2.694-1.323A5.916,5.916,0,0,1,65.8-4.825Zm2.54.189a3.754,3.754,0,0,0,.466,2.051,1.517,1.517,0,0,0,1.354.713,1.7,1.7,0,0,0,1.661-.995V-6.625a1.675,1.675,0,0,0-1.644-.995Q68.339-7.62,68.339-4.636Zm8.13,3.388a1.279,1.279,0,0,1,.409-.984A1.45,1.45,0,0,1,77.9-2.61a1.462,1.462,0,0,1,1.033.378,1.279,1.279,0,0,1,.409.984,1.261,1.261,0,0,1-.4.971A1.468,1.468,0,0,1,77.9.1a1.456,1.456,0,0,1-1.028-.374A1.261,1.261,0,0,1,76.469-1.248Z" transform="translate(916 1828)" fill="#fff"/>
      <path id="Trazado_162055" data-name="Trazado 162055" d="M17.362,14.737a4.528,4.528,0,0,1-1.525,3.252,5.355,5.355,0,0,1-3.625,1.187A4.816,4.816,0,0,1,8.34,17.519a6.793,6.793,0,0,1-1.411-4.548v-.782a7.671,7.671,0,0,1,.65-3.252A4.874,4.874,0,0,1,9.438,6.779a5.207,5.207,0,0,1,2.808-.751,5.217,5.217,0,0,1,3.568,1.187,4.866,4.866,0,0,1,1.564,3.331H14.743a2.673,2.673,0,0,0-.69-1.8,2.555,2.555,0,0,0-1.806-.558,2.24,2.24,0,0,0-1.973.945A5.3,5.3,0,0,0,9.6,12.065v.967a5.667,5.667,0,0,0,.628,3.032,2.2,2.2,0,0,0,1.982.958,2.6,2.6,0,0,0,1.824-.558,2.521,2.521,0,0,0,.69-1.727ZM23.3,19.176A4.668,4.668,0,0,1,19.9,17.893a4.561,4.561,0,0,1-1.314-3.419v-.246a5.745,5.745,0,0,1,.554-2.562,4.064,4.064,0,0,1,1.569-1.74,4.4,4.4,0,0,1,2.316-.611,3.947,3.947,0,0,1,3.072,1.23,5,5,0,0,1,1.121,3.489v1.037H21.159a2.36,2.36,0,0,0,.743,1.494,2.245,2.245,0,0,0,1.569.563,2.742,2.742,0,0,0,2.294-1.063l1.248,1.4a3.813,3.813,0,0,1-1.547,1.261A5.075,5.075,0,0,1,23.3,19.176Zm-.29-7.813a1.587,1.587,0,0,0-1.226.512,2.651,2.651,0,0,0-.6,1.466h3.533v-.2a1.891,1.891,0,0,0-.457-1.311A1.638,1.638,0,0,0,23.013,11.362Zm7.98-1.872.079,1.1a3.32,3.32,0,0,1,2.733-1.274,2.759,2.759,0,0,1,2.25.888,4.142,4.142,0,0,1,.756,2.654V19h-2.54V12.918a1.648,1.648,0,0,0-.352-1.173,1.574,1.574,0,0,0-1.169-.365,1.747,1.747,0,0,0-1.608.914V19H28.6V9.49ZM41.778,7.152V9.49H43.4v1.863H41.778V16.1a1.133,1.133,0,0,0,.2.756,1.015,1.015,0,0,0,.773.229,4.051,4.051,0,0,0,.747-.062v1.925a5.229,5.229,0,0,1-1.538.229,2.425,2.425,0,0,1-2.725-2.7V11.354H37.849V9.49h1.389V7.152Zm8.385,4.72a6.9,6.9,0,0,0-.914-.07,1.86,1.86,0,0,0-1.89.976V19h-2.54V9.49h2.4l.07,1.134a2.354,2.354,0,0,1,2.118-1.31,2.662,2.662,0,0,1,.791.114ZM56.631,19a2.821,2.821,0,0,1-.255-.853,3.073,3.073,0,0,1-2.4,1.028,3.376,3.376,0,0,1-2.316-.809,2.6,2.6,0,0,1-.918-2.039,2.687,2.687,0,0,1,1.121-2.32A5.529,5.529,0,0,1,55.1,13.19h1.169v-.545a1.567,1.567,0,0,0-.338-1.055,1.331,1.331,0,0,0-1.068-.4,1.513,1.513,0,0,0-1.006.308,1.045,1.045,0,0,0-.365.844h-2.54a2.551,2.551,0,0,1,.51-1.529,3.37,3.37,0,0,1,1.441-1.1A5.253,5.253,0,0,1,55,9.314a4.15,4.15,0,0,1,2.791.883,3.09,3.09,0,0,1,1.033,2.483V16.8a4.546,4.546,0,0,0,.378,2.048V19Zm-2.1-1.767a2.188,2.188,0,0,0,1.037-.25,1.645,1.645,0,0,0,.7-.672V14.676h-.949q-1.907,0-2.03,1.318l-.009.149a1.017,1.017,0,0,0,.334.782A1.3,1.3,0,0,0,54.531,17.233ZM63.452,19H60.9V5.5h2.549Zm4.772,0H65.675V9.49h2.549Zm-2.7-11.971a1.251,1.251,0,0,1,.382-.94,1.648,1.648,0,0,1,2.079,0,1.244,1.244,0,0,1,.387.94,1.247,1.247,0,0,1-.391.949,1.629,1.629,0,0,1-2.065,0A1.247,1.247,0,0,1,65.526,7.029Zm7.708,9.923h4.649V19H69.991V17.453l4.474-5.915H70.123V9.49h7.62v1.5ZM84.985,19a2.821,2.821,0,0,1-.255-.853,3.073,3.073,0,0,1-2.4,1.028,3.376,3.376,0,0,1-2.316-.809,2.6,2.6,0,0,1-.918-2.039,2.687,2.687,0,0,1,1.121-2.32,5.529,5.529,0,0,1,3.239-.817h1.169v-.545a1.567,1.567,0,0,0-.338-1.055,1.331,1.331,0,0,0-1.068-.4,1.513,1.513,0,0,0-1.006.308,1.045,1.045,0,0,0-.365.844h-2.54a2.551,2.551,0,0,1,.51-1.529,3.37,3.37,0,0,1,1.441-1.1,5.253,5.253,0,0,1,2.092-.4,4.15,4.15,0,0,1,2.791.883,3.09,3.09,0,0,1,1.033,2.483V16.8a4.546,4.546,0,0,0,.378,2.048V19Zm-2.1-1.767a2.188,2.188,0,0,0,1.037-.25,1.645,1.645,0,0,0,.7-.672V14.676h-.949q-1.907,0-2.03,1.318l-.009.149a1.017,1.017,0,0,0,.334.782A1.3,1.3,0,0,0,82.884,17.233Zm10.2-.105a1.666,1.666,0,0,0,1.143-.387,1.355,1.355,0,0,0,.457-1.028h2.382a3.258,3.258,0,0,1-.527,1.771,3.48,3.48,0,0,1-1.419,1.248,4.442,4.442,0,0,1-1.991.444,4.129,4.129,0,0,1-3.217-1.3A5.13,5.13,0,0,1,88.729,14.3v-.167A5.071,5.071,0,0,1,89.9,10.624a4.08,4.08,0,0,1,3.208-1.31,4,4,0,0,1,2.861,1.015,3.594,3.594,0,0,1,1.094,2.7H94.679a1.745,1.745,0,0,0-.457-1.206,1.7,1.7,0,0,0-2.5.183,3.749,3.749,0,0,0-.453,2.1v.264a3.8,3.8,0,0,0,.448,2.113A1.549,1.549,0,0,0,93.08,17.128ZM101.192,19H98.643V9.49h2.549Zm-2.7-11.971a1.251,1.251,0,0,1,.382-.94,1.648,1.648,0,0,1,2.079,0,1.244,1.244,0,0,1,.387.94,1.247,1.247,0,0,1-.391.949,1.629,1.629,0,0,1-2.065,0A1.247,1.247,0,0,1,98.494,7.029Zm4.395,7.128a5.64,5.64,0,0,1,.545-2.522A3.989,3.989,0,0,1,105,9.921a4.577,4.577,0,0,1,2.377-.606,4.33,4.33,0,0,1,3.142,1.178,4.727,4.727,0,0,1,1.358,3.2l.018.65a4.97,4.97,0,0,1-1.222,3.511,4.735,4.735,0,0,1-6.561,0,5.058,5.058,0,0,1-1.226-3.586Zm2.54.18a3.555,3.555,0,0,0,.51,2.073,1.831,1.831,0,0,0,2.9.009,3.89,3.89,0,0,0,.519-2.267,3.519,3.519,0,0,0-.519-2.06,1.686,1.686,0,0,0-1.459-.731,1.658,1.658,0,0,0-1.441.726A3.955,3.955,0,0,0,105.428,14.338ZM107.88,5.5h2.769l-2.435,2.725h-2.065ZM115.8,9.49l.079,1.1a3.32,3.32,0,0,1,2.733-1.274,2.759,2.759,0,0,1,2.25.888,4.142,4.142,0,0,1,.756,2.654V19h-2.54V12.918a1.648,1.648,0,0,0-.352-1.173,1.574,1.574,0,0,0-1.169-.365,1.747,1.747,0,0,0-1.608.914V19h-2.54V9.49Zm11.83,4.685a5.731,5.731,0,0,1,1-3.542,3.237,3.237,0,0,1,2.729-1.318,2.913,2.913,0,0,1,2.294,1.037V5.5H136.2V19H133.9l-.123-1.011a2.989,2.989,0,0,1-2.443,1.187,3.228,3.228,0,0,1-2.694-1.323A5.916,5.916,0,0,1,127.629,14.175Zm2.54.189a3.754,3.754,0,0,0,.466,2.051,1.517,1.517,0,0,0,1.354.713,1.7,1.7,0,0,0,1.661-.995V12.375a1.675,1.675,0,0,0-1.644-.995Q130.169,11.38,130.169,14.364Zm12.375,4.812a4.668,4.668,0,0,1-3.406-1.283,4.561,4.561,0,0,1-1.314-3.419v-.246a5.745,5.745,0,0,1,.554-2.562,4.064,4.064,0,0,1,1.569-1.74,4.4,4.4,0,0,1,2.316-.611,3.947,3.947,0,0,1,3.072,1.23,5,5,0,0,1,1.121,3.489v1.037H140.4a2.36,2.36,0,0,0,.743,1.494,2.245,2.245,0,0,0,1.569.563,2.742,2.742,0,0,0,2.294-1.063l1.248,1.4a3.813,3.813,0,0,1-1.547,1.261A5.075,5.075,0,0,1,142.544,19.176Zm-.29-7.813a1.587,1.587,0,0,0-1.226.512,2.651,2.651,0,0,0-.6,1.466h3.533v-.2a1.891,1.891,0,0,0-.457-1.311A1.638,1.638,0,0,0,142.254,11.362ZM155.06,19h-2.549V5.5h2.549Zm7.6,0a2.821,2.821,0,0,1-.255-.853,3.073,3.073,0,0,1-2.4,1.028,3.376,3.376,0,0,1-2.316-.809,2.6,2.6,0,0,1-.918-2.039,2.687,2.687,0,0,1,1.121-2.32,5.529,5.529,0,0,1,3.239-.817H162.3v-.545a1.567,1.567,0,0,0-.338-1.055,1.331,1.331,0,0,0-1.068-.4,1.513,1.513,0,0,0-1.006.308,1.045,1.045,0,0,0-.365.844h-2.54a2.551,2.551,0,0,1,.51-1.529,3.37,3.37,0,0,1,1.441-1.1,5.253,5.253,0,0,1,2.092-.4,4.15,4.15,0,0,1,2.791.883,3.09,3.09,0,0,1,1.033,2.483V16.8a4.546,4.546,0,0,0,.378,2.048V19Zm-2.1-1.767a2.188,2.188,0,0,0,1.037-.25,1.645,1.645,0,0,0,.7-.672V14.676h-.949q-1.907,0-2.03,1.318l-.009.149a1.017,1.017,0,0,0,.334.782A1.3,1.3,0,0,0,160.562,17.233ZM38.192,39H35.643V29.49h2.549Zm-2.7-11.971a1.251,1.251,0,0,1,.382-.94,1.648,1.648,0,0,1,2.079,0,1.342,1.342,0,0,1,0,1.89,1.629,1.629,0,0,1-2.065,0A1.247,1.247,0,0,1,35.494,27.029Zm7.128,2.461.079,1.1a3.32,3.32,0,0,1,2.733-1.274,2.759,2.759,0,0,1,2.25.888,4.142,4.142,0,0,1,.756,2.654V39H45.9V32.918a1.648,1.648,0,0,0-.352-1.173,1.574,1.574,0,0,0-1.169-.365,1.747,1.747,0,0,0-1.608.914V39h-2.54V29.49ZM51.059,39V31.354H49.644V29.49h1.415v-.809a3.283,3.283,0,0,1,.918-2.483,3.557,3.557,0,0,1,2.571-.883,5.938,5.938,0,0,1,1.292.176l-.026,1.969a3.238,3.238,0,0,0-.773-.079q-1.433,0-1.433,1.345v.765H55.5v1.863h-1.89V39Zm5.361-4.843a5.64,5.64,0,0,1,.545-2.522,3.989,3.989,0,0,1,1.569-1.714,4.577,4.577,0,0,1,2.377-.606,4.33,4.33,0,0,1,3.142,1.178,4.727,4.727,0,0,1,1.358,3.2l.018.65a4.97,4.97,0,0,1-1.222,3.511,4.735,4.735,0,0,1-6.561,0,5.058,5.058,0,0,1-1.226-3.586Zm2.54.18a3.555,3.555,0,0,0,.51,2.073,1.831,1.831,0,0,0,2.9.009,3.89,3.89,0,0,0,.519-2.267,3.519,3.519,0,0,0-.519-2.06,1.686,1.686,0,0,0-1.459-.731,1.658,1.658,0,0,0-1.441.726A3.955,3.955,0,0,0,58.96,34.338Zm13.377-2.465a6.9,6.9,0,0,0-.914-.07,1.86,1.86,0,0,0-1.89.976V39h-2.54V29.49h2.4l.07,1.134a2.354,2.354,0,0,1,2.118-1.31,2.662,2.662,0,0,1,.791.114Zm3.6-2.382.079,1.063a3.342,3.342,0,0,1,2.733-1.239,2.536,2.536,0,0,1,2.522,1.45,3.265,3.265,0,0,1,2.856-1.45,2.836,2.836,0,0,1,2.3.9,4.141,4.141,0,0,1,.756,2.711V39H84.642V32.936a1.811,1.811,0,0,0-.316-1.182,1.4,1.4,0,0,0-1.116-.374,1.585,1.585,0,0,0-1.582,1.09L81.636,39H79.1V32.944a1.789,1.789,0,0,0-.325-1.2,1.416,1.416,0,0,0-1.107-.369,1.646,1.646,0,0,0-1.564.9V39h-2.54V29.49ZM94.653,39a2.821,2.821,0,0,1-.255-.853A3.073,3.073,0,0,1,92,39.176a3.376,3.376,0,0,1-2.316-.809,2.6,2.6,0,0,1-.918-2.039,2.687,2.687,0,0,1,1.121-2.32,5.529,5.529,0,0,1,3.239-.817h1.169v-.545a1.567,1.567,0,0,0-.338-1.055,1.331,1.331,0,0,0-1.068-.4,1.513,1.513,0,0,0-1.006.308,1.045,1.045,0,0,0-.365.844h-2.54a2.551,2.551,0,0,1,.51-1.529,3.37,3.37,0,0,1,1.441-1.1,5.253,5.253,0,0,1,2.092-.4,4.15,4.15,0,0,1,2.791.883,3.09,3.09,0,0,1,1.033,2.483V36.8a4.546,4.546,0,0,0,.378,2.048V39Zm-2.1-1.767a2.188,2.188,0,0,0,1.037-.25,1.645,1.645,0,0,0,.7-.672V34.676h-.949q-1.907,0-2.03,1.318l-.009.149a1.017,1.017,0,0,0,.334.782A1.3,1.3,0,0,0,92.552,37.233Zm10.2-.105a1.666,1.666,0,0,0,1.143-.387,1.355,1.355,0,0,0,.457-1.028h2.382a3.258,3.258,0,0,1-.527,1.771,3.48,3.48,0,0,1-1.419,1.248,4.442,4.442,0,0,1-1.991.444,4.129,4.129,0,0,1-3.217-1.3A5.13,5.13,0,0,1,98.4,34.3v-.167a5.071,5.071,0,0,1,1.169-3.507,4.08,4.08,0,0,1,3.208-1.31,4,4,0,0,1,2.861,1.015,3.594,3.594,0,0,1,1.094,2.7h-2.382a1.745,1.745,0,0,0-.457-1.206,1.7,1.7,0,0,0-2.5.183,3.749,3.749,0,0,0-.453,2.1v.264a3.8,3.8,0,0,0,.448,2.113A1.549,1.549,0,0,0,102.748,37.128ZM110.86,39h-2.549V29.49h2.549Zm-2.7-11.971a1.251,1.251,0,0,1,.382-.94,1.648,1.648,0,0,1,2.079,0,1.342,1.342,0,0,1,0,1.89,1.629,1.629,0,0,1-2.065,0A1.247,1.247,0,0,1,108.162,27.029Zm4.395,7.128a5.64,5.64,0,0,1,.545-2.522,3.989,3.989,0,0,1,1.569-1.714,4.577,4.577,0,0,1,2.377-.606,4.33,4.33,0,0,1,3.142,1.178,4.727,4.727,0,0,1,1.358,3.2l.018.65a4.97,4.97,0,0,1-1.222,3.511,4.735,4.735,0,0,1-6.561,0,5.058,5.058,0,0,1-1.226-3.586Zm2.54.18a3.555,3.555,0,0,0,.51,2.073,1.831,1.831,0,0,0,2.9.009,3.89,3.89,0,0,0,.519-2.267,3.519,3.519,0,0,0-.519-2.06,1.686,1.686,0,0,0-1.459-.731,1.658,1.658,0,0,0-1.441.726A3.955,3.955,0,0,0,115.1,34.338Zm2.452-8.838h2.769l-2.435,2.725h-2.065Zm7.919,3.99.079,1.1a3.32,3.32,0,0,1,2.733-1.274,2.759,2.759,0,0,1,2.25.888,4.142,4.142,0,0,1,.756,2.654V39h-2.54V32.918a1.648,1.648,0,0,0-.352-1.173,1.574,1.574,0,0,0-1.169-.365,1.747,1.747,0,0,0-1.608.914V39h-2.54V29.49Zm7.875,8.262a1.279,1.279,0,0,1,.409-.984,1.588,1.588,0,0,1,2.057,0,1.279,1.279,0,0,1,.409.984,1.261,1.261,0,0,1-.4.971,1.614,1.614,0,0,1-2.065,0A1.261,1.261,0,0,1,133.342,37.752Z" transform="translate(608 2029)" fill="#fff"/>
      <ellipse id="Elipse_4914" data-name="Elipse 4914" cx="73.5" cy="71.5" rx="73.5" ry="71.5" transform="translate(727 1851)" fill="#fff"/>
      <path id="Trazado_162056" data-name="Trazado 162056" d="M27.779,6.2,29,15.08,33.29,6.2H37.3L35.083,19H32.06l.545-3.138,1.3-5.783L29.423,19h-2l-1.45-9.255-.809,6.416L24.668,19H21.662L23.877,6.2ZM41.648,19.176a4.421,4.421,0,0,1-2.272-.6,3.793,3.793,0,0,1-1.507-1.652,4.44,4.44,0,0,1-.4-2.333l.026-.246a5.829,5.829,0,0,1,1.63-3.713,4.51,4.51,0,0,1,3.415-1.314,3.678,3.678,0,0,1,2.092.621A3.468,3.468,0,0,1,45.9,11.6a5.1,5.1,0,0,1,.264,2.381L46,15.186h-5.66a1.854,1.854,0,0,0,.422,1.213,1.549,1.549,0,0,0,1.178.492,2.993,2.993,0,0,0,2.259-.967l1.213,1.6a3.578,3.578,0,0,1-1.5,1.2,5.263,5.263,0,0,1-2.1.451Zm.7-7.576a1.487,1.487,0,0,0-1.068.385,3.229,3.229,0,0,0-.787,1.347h2.892l.053-.254a1.929,1.929,0,0,0,.018-.577A1.017,1.017,0,0,0,42.352,11.6Zm4.641,2.628a6.917,6.917,0,0,1,1.371-3.6,3.4,3.4,0,0,1,2.865-1.31,2.592,2.592,0,0,1,2.013,1.02L54.164,5.5h2.9L54.727,19H52.151l.123-1.028a2.968,2.968,0,0,1-2.364,1.213,2.62,2.62,0,0,1-2.149-1.015,4.476,4.476,0,0,1-.831-2.676,8.231,8.231,0,0,1,.035-1.081Zm2.883.2a6.9,6.9,0,0,0-.062.984q0,1.459.984,1.485a1.844,1.844,0,0,0,1.521-.817l.65-3.647a1.171,1.171,0,0,0-1.16-.835,1.478,1.478,0,0,0-1.305.7A4.507,4.507,0,0,0,49.875,14.43Zm9.6,4.57h-2.9l1.652-9.51h2.9ZM58.479,7.091a1.341,1.341,0,0,1,.453-1.072,1.625,1.625,0,0,1,1.138-.431,1.678,1.678,0,0,1,1.129.387,1.318,1.318,0,0,1,.47,1.011,1.344,1.344,0,0,1-.448,1.077,1.63,1.63,0,0,1-1.143.426,1.7,1.7,0,0,1-1.121-.382A1.3,1.3,0,0,1,58.479,7.091Zm8.376,2.224a3.994,3.994,0,0,1,2.206.637,3.59,3.59,0,0,1,1.367,1.727,5.33,5.33,0,0,1,.312,2.461l-.018.193A5.636,5.636,0,0,1,69.1,17.866a4.575,4.575,0,0,1-3.41,1.31,3.977,3.977,0,0,1-2.188-.628,3.612,3.612,0,0,1-1.367-1.709,5.179,5.179,0,0,1-.321-2.443,5.863,5.863,0,0,1,1.6-3.727A4.547,4.547,0,0,1,66.855,9.314ZM64.7,14.4l-.026.518q-.123,1.957,1.2,1.992,1.705.053,1.978-2.764l.035-.8a2.155,2.155,0,0,0-.294-1.259,1.073,1.073,0,0,0-.918-.487,1.512,1.512,0,0,0-1.314.654A4.278,4.278,0,0,0,64.7,14.4Zm11.865,1.877q.114-.58-.9-.87l-.624-.158a4.806,4.806,0,0,1-2.241-1.134,2.244,2.244,0,0,1-.668-1.731,2.758,2.758,0,0,1,1.217-2.228,4.633,4.633,0,0,1,2.861-.839,4.292,4.292,0,0,1,2.72.853A2.781,2.781,0,0,1,80,12.417l-2.883-.009q.035-1.125-.993-1.125a1.417,1.417,0,0,0-.817.259,1.007,1.007,0,0,0-.448.69q-.149.712,1.257.976A7.3,7.3,0,0,1,78,13.88a2.821,2.821,0,0,1,1.02.945,2.35,2.35,0,0,1,.325,1.354,2.541,2.541,0,0,1-.562,1.538A3.642,3.642,0,0,1,77.231,18.8a5.557,5.557,0,0,1-2.2.378,4.469,4.469,0,0,1-1.912-.431,3.408,3.408,0,0,1-1.38-1.147,2.979,2.979,0,0,1-.514-1.666l2.689.018A1.111,1.111,0,0,0,75.179,17.2a1.661,1.661,0,0,0,.914-.242A1.045,1.045,0,0,0,76.567,16.275ZM6.2,39.176a4.421,4.421,0,0,1-2.272-.6,3.793,3.793,0,0,1-1.507-1.652,4.44,4.44,0,0,1-.4-2.333l.026-.246a5.829,5.829,0,0,1,1.63-3.713,4.51,4.51,0,0,1,3.415-1.314,3.678,3.678,0,0,1,2.092.621A3.468,3.468,0,0,1,10.452,31.6a5.1,5.1,0,0,1,.264,2.381l-.167,1.206H4.888A1.854,1.854,0,0,0,5.31,36.4a1.549,1.549,0,0,0,1.178.492,2.993,2.993,0,0,0,2.259-.967l1.213,1.6a3.578,3.578,0,0,1-1.5,1.2,5.263,5.263,0,0,1-2.1.451ZM6.9,31.6a1.487,1.487,0,0,0-1.068.385,3.229,3.229,0,0,0-.787,1.347H7.938l.053-.254a1.929,1.929,0,0,0,.018-.577A1.017,1.017,0,0,0,6.9,31.6ZM14.117,39h-2.9l2.338-13.5h2.9Zm6.565.176a4.421,4.421,0,0,1-2.272-.6A3.793,3.793,0,0,1,16.9,36.921a4.44,4.44,0,0,1-.4-2.333l.026-.246a5.829,5.829,0,0,1,1.63-3.713,4.51,4.51,0,0,1,3.415-1.314,3.678,3.678,0,0,1,2.092.621A3.468,3.468,0,0,1,24.936,31.6,5.1,5.1,0,0,1,25.2,33.98l-.167,1.206h-5.66a1.854,1.854,0,0,0,.422,1.213,1.549,1.549,0,0,0,1.178.492,2.993,2.993,0,0,0,2.259-.967l1.213,1.6a3.578,3.578,0,0,1-1.5,1.2,5.263,5.263,0,0,1-2.1.451Zm.7-7.576a1.487,1.487,0,0,0-1.068.385,3.229,3.229,0,0,0-.787,1.347h2.892l.053-.254a1.929,1.929,0,0,0,.018-.577A1.017,1.017,0,0,0,21.385,31.6Zm8.569,5.291a1.244,1.244,0,0,0,.976-.345,1.717,1.717,0,0,0,.448-.938l2.707-.009a3.559,3.559,0,0,1-.62,1.872,3.745,3.745,0,0,1-1.529,1.279,4.521,4.521,0,0,1-2.061.426,3.57,3.57,0,0,1-2.927-1.367,4.726,4.726,0,0,1-.835-3.441l.026-.211a6.371,6.371,0,0,1,.809-2.553,4.626,4.626,0,0,1,1.709-1.718,4.433,4.433,0,0,1,2.369-.571,3.536,3.536,0,0,1,2.624,1.059,3.755,3.755,0,0,1,.927,2.764l-2.707-.009q.044-1.5-1.081-1.529-1.529-.053-1.758,2.567l-.079.893-.009.333Q28.944,36.864,29.955,36.891Zm10.178-9.765-.413,2.364H41.24l-.36,2.057H39.359l-.738,4.368a1.164,1.164,0,0,0,.057.677q.119.229.593.246a6.873,6.873,0,0,0,.756-.044l-.211,2.145a4.673,4.673,0,0,1-1.556.22,2.563,2.563,0,0,1-2.013-.791,2.7,2.7,0,0,1-.545-2.1l.773-4.72H35.3l.352-2.057h1.178l.413-2.364Zm7.523,5.045a8.273,8.273,0,0,0-.9-.088,2.233,2.233,0,0,0-1.986.9L43.7,39H40.809l1.652-9.51,2.7-.009-.22,1.248a2.64,2.64,0,0,1,2.2-1.441,4.144,4.144,0,0,1,.9.123Zm5.388-2.856a3.994,3.994,0,0,1,2.206.637,3.59,3.59,0,0,1,1.367,1.727,5.33,5.33,0,0,1,.312,2.461l-.018.193a5.636,5.636,0,0,1-1.626,3.533,4.575,4.575,0,0,1-3.41,1.31,3.977,3.977,0,0,1-2.188-.628,3.612,3.612,0,0,1-1.367-1.709A5.179,5.179,0,0,1,48,34.395a5.863,5.863,0,0,1,1.6-3.727A4.547,4.547,0,0,1,53.043,29.314ZM50.89,34.4l-.026.518q-.123,1.957,1.2,1.992,1.705.053,1.978-2.764l.035-.8a2.155,2.155,0,0,0-.294-1.259,1.073,1.073,0,0,0-.918-.487,1.512,1.512,0,0,0-1.314.654A4.278,4.278,0,0,0,50.89,34.4Zm3.2-8.9h3.226l-2.8,2.76-2.531,0Zm7.594,3.981-.2,1.143a3.38,3.38,0,0,1,2.751-1.318,2.27,2.27,0,0,1,1.964.98,4.1,4.1,0,0,1,.47,2.729l-1,5.985h-2.9l1.011-6.01a3.108,3.108,0,0,0,.018-.563q-.062-.836-.984-.836a1.807,1.807,0,0,0-1.4.678L60.224,39H57.333l1.652-9.51ZM70.375,39h-2.9l1.652-9.51h2.9Zm-.993-11.909a1.341,1.341,0,0,1,.453-1.072,1.625,1.625,0,0,1,1.138-.431,1.678,1.678,0,0,1,1.129.387,1.318,1.318,0,0,1,.47,1.011,1.344,1.344,0,0,1-.448,1.077,1.63,1.63,0,0,1-1.143.426,1.7,1.7,0,0,1-1.121-.382A1.3,1.3,0,0,1,69.382,27.091Zm7.233,9.8a1.244,1.244,0,0,0,.976-.345,1.717,1.717,0,0,0,.448-.938l2.707-.009a3.559,3.559,0,0,1-.62,1.872A3.745,3.745,0,0,1,78.6,38.75a4.521,4.521,0,0,1-2.061.426,3.57,3.57,0,0,1-2.927-1.367,4.726,4.726,0,0,1-.835-3.441l.026-.211A6.371,6.371,0,0,1,73.61,31.6a4.626,4.626,0,0,1,1.709-1.718,4.433,4.433,0,0,1,2.369-.571,3.536,3.536,0,0,1,2.624,1.059,3.755,3.755,0,0,1,.927,2.764l-2.707-.009q.044-1.5-1.081-1.529-1.529-.053-1.758,2.567l-.079.893-.009.333Q75.6,36.864,76.616,36.891Zm10.3-7.576a3.994,3.994,0,0,1,2.206.637,3.59,3.59,0,0,1,1.367,1.727A5.33,5.33,0,0,1,90.8,34.14l-.018.193a5.636,5.636,0,0,1-1.626,3.533,4.575,4.575,0,0,1-3.41,1.31,3.977,3.977,0,0,1-2.188-.628,3.612,3.612,0,0,1-1.367-1.709,5.179,5.179,0,0,1-.321-2.443,5.863,5.863,0,0,1,1.6-3.727A4.547,4.547,0,0,1,86.917,29.314ZM84.763,34.4l-.026.518q-.123,1.957,1.2,1.992,1.705.053,1.978-2.764l.035-.8a2.155,2.155,0,0,0-.294-1.259,1.073,1.073,0,0,0-.918-.487,1.512,1.512,0,0,0-1.314.654A4.278,4.278,0,0,0,84.763,34.4Zm11.865,1.877q.114-.58-.9-.87l-.624-.158a4.806,4.806,0,0,1-2.241-1.134,2.244,2.244,0,0,1-.668-1.731,2.758,2.758,0,0,1,1.217-2.228,4.633,4.633,0,0,1,2.861-.839,4.292,4.292,0,0,1,2.72.853,2.781,2.781,0,0,1,1.059,2.25l-2.883-.009q.035-1.125-.993-1.125a1.417,1.417,0,0,0-.817.259,1.007,1.007,0,0,0-.448.69q-.149.712,1.257.976a7.3,7.3,0,0,1,1.89.672,2.821,2.821,0,0,1,1.02.945,2.35,2.35,0,0,1,.325,1.354,2.541,2.541,0,0,1-.562,1.538A3.642,3.642,0,0,1,97.292,38.8a5.557,5.557,0,0,1-2.2.378,4.469,4.469,0,0,1-1.912-.431A3.408,3.408,0,0,1,91.8,37.6a2.979,2.979,0,0,1-.514-1.666l2.689.018A1.111,1.111,0,0,0,95.24,37.2a1.661,1.661,0,0,0,.914-.242A1.045,1.045,0,0,0,96.628,36.275ZM7.586,56.891a1.244,1.244,0,0,0,.976-.345,1.717,1.717,0,0,0,.448-.938l2.707-.009a3.559,3.559,0,0,1-.62,1.872A3.745,3.745,0,0,1,9.568,58.75a4.521,4.521,0,0,1-2.061.426,3.57,3.57,0,0,1-2.927-1.367,4.726,4.726,0,0,1-.835-3.441l.026-.211A6.371,6.371,0,0,1,4.581,51.6,4.626,4.626,0,0,1,6.29,49.886a4.433,4.433,0,0,1,2.369-.571,3.536,3.536,0,0,1,2.624,1.059,3.755,3.755,0,0,1,.927,2.764L9.5,53.129q.044-1.5-1.081-1.529-1.529-.053-1.758,2.567l-.079.893-.009.333Q6.576,56.864,7.586,56.891Zm9.483,2.285a4.421,4.421,0,0,1-2.272-.6,3.793,3.793,0,0,1-1.507-1.652,4.44,4.44,0,0,1-.4-2.333l.026-.246a5.829,5.829,0,0,1,1.63-3.713,4.51,4.51,0,0,1,3.415-1.314,3.678,3.678,0,0,1,2.092.621A3.468,3.468,0,0,1,21.324,51.6a5.1,5.1,0,0,1,.264,2.381l-.167,1.206H15.76a1.854,1.854,0,0,0,.422,1.213,1.549,1.549,0,0,0,1.178.492,2.993,2.993,0,0,0,2.259-.967l1.213,1.6a3.578,3.578,0,0,1-1.5,1.2,5.263,5.263,0,0,1-2.1.451Zm.7-7.576a1.487,1.487,0,0,0-1.068.385,3.229,3.229,0,0,0-.787,1.347H18.81l.053-.254a1.929,1.929,0,0,0,.018-.577A1.017,1.017,0,0,0,17.773,51.6Zm11.03.571a8.273,8.273,0,0,0-.9-.088,2.233,2.233,0,0,0-1.986.9L24.848,59H21.957l1.652-9.51,2.7-.009-.22,1.248a2.64,2.64,0,0,1,2.2-1.441,4.144,4.144,0,0,1,.9.123Zm5.7-5.045-.413,2.364h1.521l-.36,2.057H33.734L33,55.915a1.164,1.164,0,0,0,.057.677q.119.229.593.246a6.873,6.873,0,0,0,.756-.044l-.211,2.145a4.673,4.673,0,0,1-1.556.22,2.563,2.563,0,0,1-2.013-.791,2.7,2.7,0,0,1-.545-2.1l.773-4.72H29.673l.352-2.057H31.2l.413-2.364ZM38.216,59h-2.9l1.652-9.51h2.9Zm-.993-11.909a1.341,1.341,0,0,1,.453-1.072,1.625,1.625,0,0,1,1.138-.431,1.678,1.678,0,0,1,1.129.387,1.318,1.318,0,0,1,.47,1.011,1.344,1.344,0,0,1-.448,1.077,1.63,1.63,0,0,1-1.143.426,1.7,1.7,0,0,1-1.121-.382A1.3,1.3,0,0,1,37.223,47.091ZM40.721,59l1.292-7.453H40.677l.36-2.057,1.248.009.07-.36A4.662,4.662,0,0,1,44,46.282a5.076,5.076,0,0,1,3.283-.976,13.29,13.29,0,0,1,3.023.5l-.615,2.355A7.643,7.643,0,0,0,47.3,47.75a2.326,2.326,0,0,0-1.31.365,1.816,1.816,0,0,0-.747,1.121l-.062.264,1.907-.009-.369,2.057h-1.8L43.622,59Zm8.692,0h-2.9l1.644-9.51h2.909Zm6.231-2.109a1.244,1.244,0,0,0,.976-.345,1.717,1.717,0,0,0,.448-.938l2.707-.009a3.559,3.559,0,0,1-.62,1.872,3.745,3.745,0,0,1-1.529,1.279,4.521,4.521,0,0,1-2.061.426,3.57,3.57,0,0,1-2.927-1.367,4.726,4.726,0,0,1-.835-3.441l.026-.211a6.371,6.371,0,0,1,.809-2.553,4.626,4.626,0,0,1,1.709-1.718,4.433,4.433,0,0,1,2.369-.571,3.536,3.536,0,0,1,2.624,1.059,3.755,3.755,0,0,1,.927,2.764l-2.707-.009q.044-1.5-1.081-1.529-1.529-.053-1.758,2.567l-.079.893-.009.333Q54.634,56.864,55.645,56.891ZM65.761,59a2.578,2.578,0,0,1-.123-.861,2.933,2.933,0,0,1-2.329,1.037,2.866,2.866,0,0,1-2.057-.826,2.483,2.483,0,0,1-.765-1.96,2.79,2.79,0,0,1,1.292-2.377,6.091,6.091,0,0,1,3.41-.831l.967.018.105-.536L66.3,52.2a.755.755,0,0,0-.8-.826,1.111,1.111,0,0,0-1.169,1.046l-2.9.009a2.754,2.754,0,0,1,.624-1.666,3.7,3.7,0,0,1,1.578-1.09,5.512,5.512,0,0,1,2.123-.356,4.251,4.251,0,0,1,1.894.453,2.82,2.82,0,0,1,1.217,1.187,3.031,3.031,0,0,1,.308,1.753l-.712,4.474-.044.545a2.4,2.4,0,0,0,.167,1.107L68.574,59Zm-1.652-1.916a1.865,1.865,0,0,0,1.556-.782l.29-1.529-.747-.009a1.969,1.969,0,0,0-1.2.409,1.55,1.55,0,0,0-.589,1.068.778.778,0,0,0,.136.593A.7.7,0,0,0,64.109,57.084Zm6.117-2.856a6.917,6.917,0,0,1,1.371-3.6,3.4,3.4,0,0,1,2.865-1.31,2.592,2.592,0,0,1,2.013,1.02L77.4,45.5h2.9L77.96,59H75.385l.123-1.028a2.968,2.968,0,0,1-2.364,1.213A2.62,2.62,0,0,1,71,58.169a4.476,4.476,0,0,1-.831-2.676,8.231,8.231,0,0,1,.035-1.081Zm2.883.2a6.9,6.9,0,0,0-.062.984q0,1.459.984,1.485a1.844,1.844,0,0,0,1.521-.817l.65-3.647a1.171,1.171,0,0,0-1.16-.835,1.478,1.478,0,0,0-1.305.7A4.507,4.507,0,0,0,73.109,54.43ZM85.2,49.314a3.994,3.994,0,0,1,2.206.637,3.59,3.59,0,0,1,1.367,1.727,5.33,5.33,0,0,1,.312,2.461l-.018.193a5.636,5.636,0,0,1-1.626,3.533,4.575,4.575,0,0,1-3.41,1.31,3.977,3.977,0,0,1-2.188-.628,3.612,3.612,0,0,1-1.367-1.709,5.179,5.179,0,0,1-.321-2.443,5.863,5.863,0,0,1,1.6-3.727A4.547,4.547,0,0,1,85.2,49.314ZM83.049,54.4l-.026.518q-.123,1.957,1.2,1.992,1.705.053,1.978-2.764l.035-.8a2.155,2.155,0,0,0-.294-1.259,1.073,1.073,0,0,0-.918-.487,1.512,1.512,0,0,0-1.314.654A4.278,4.278,0,0,0,83.049,54.4Zm11.865,1.877q.114-.58-.9-.87l-.624-.158a4.806,4.806,0,0,1-2.241-1.134,2.244,2.244,0,0,1-.668-1.731A2.758,2.758,0,0,1,91.7,50.154a4.633,4.633,0,0,1,2.861-.839,4.292,4.292,0,0,1,2.72.853,2.781,2.781,0,0,1,1.059,2.25l-2.883-.009q.035-1.125-.993-1.125a1.417,1.417,0,0,0-.817.259,1.007,1.007,0,0,0-.448.69q-.149.712,1.257.976a7.3,7.3,0,0,1,1.89.672,2.821,2.821,0,0,1,1.02.945,2.35,2.35,0,0,1,.325,1.354,2.541,2.541,0,0,1-.562,1.538A3.642,3.642,0,0,1,95.578,58.8a5.557,5.557,0,0,1-2.2.378,4.469,4.469,0,0,1-1.912-.431,3.408,3.408,0,0,1-1.38-1.147,2.979,2.979,0,0,1-.514-1.666l2.689.018A1.111,1.111,0,0,0,93.526,57.2a1.661,1.661,0,0,0,.914-.242A1.045,1.045,0,0,0,94.915,56.275Z" transform="translate(750 1901)" fill="#373660"/>
      <g id="Enmascarar_grupo_195" data-name="Enmascarar grupo 195" clip-path="url(#clip-path)">
        <g id="carga-en-la-nube" transform="translate(673.355 1766.354)">
          <path id="Trazado_157127" data-name="Trazado 157127" d="M37.419,20H31.613V18.71h3.871a5.161,5.161,0,0,0,0-10.323,5.071,5.071,0,0,0-1.055.112,7.722,7.722,0,0,0-10.9-4.4,9.58,9.58,0,0,0-7.4-3.457A9.716,9.716,0,0,0,7,7.124a5.806,5.806,0,1,0-.55,11.586H7.1v5.161H2.581A1.938,1.938,0,0,0,.645,25.806v2.581a1.923,1.923,0,0,0,.5,1.29,1.923,1.923,0,0,0-.5,1.29v2.581a1.923,1.923,0,0,0,.5,1.29,1.923,1.923,0,0,0-.5,1.29V38.71a1.938,1.938,0,0,0,1.935,1.935H12.9a1.938,1.938,0,0,0,1.935-1.935V36.129a1.923,1.923,0,0,0-.5-1.29,1.92,1.92,0,0,0,.5-1.29V30.968a1.923,1.923,0,0,0-.5-1.29,1.92,1.92,0,0,0,.5-1.29V25.806A1.938,1.938,0,0,0,12.9,23.871H8.387V18.71H25.161V20H19.355a3.229,3.229,0,0,0-3.226,3.226V33.548a3.229,3.229,0,0,0,3.226,3.226h3.226v2.581H20v1.29H36.774v-1.29H34.194V36.774h3.226a3.229,3.229,0,0,0,3.226-3.226V23.226A3.229,3.229,0,0,0,37.419,20Zm-7.1-5.161v8.283l-.18-.541h-3.51l-.181.541V14.839H23.923l3.919-4.9a.719.719,0,0,1,1.089,0l3.921,4.9ZM13.548,38.71a.645.645,0,0,1-.645.645H2.581a.645.645,0,0,1-.645-.645V36.129a.645.645,0,0,1,.645-.645H12.9a.645.645,0,0,1,.645.645Zm0-5.161a.645.645,0,0,1-.645.645H2.581a.645.645,0,0,1-.645-.645V30.968a.645.645,0,0,1,.645-.645H12.9a.645.645,0,0,1,.645.645ZM12.9,25.161a.645.645,0,0,1,.645.645v2.581a.645.645,0,0,1-.645.645H2.581a.645.645,0,0,1-.645-.645V25.806a.645.645,0,0,1,.645-.645ZM6.452,17.419a4.516,4.516,0,1,1,.874-8.946l.581.114.163-.57a8.419,8.419,0,0,1,8.059-6.082,8.315,8.315,0,0,1,6.722,3.388l.354.475.5-.312a6.432,6.432,0,0,1,9.651,3.957l.168.693L34.2,9.9a3.869,3.869,0,1,1,1.283,7.519H31.613v-1.29h3.923l-5.6-7a1.988,1.988,0,0,0-3.1,0l-5.6,7h3.923v1.29ZM25.3,26.039l.3-.163a5.706,5.706,0,0,1,1.164-.479l.325-.094.477-1.432h1.651L29.69,25.3l.325.094a5.78,5.78,0,0,1,1.164.479l.3.163,1.348-.674,1.167,1.167-.674,1.348.163.3a5.706,5.706,0,0,1,.479,1.164l.094.325,1.431.477v1.47H32.848a4.471,4.471,0,0,0,.055-.645,4.516,4.516,0,1,0-9.032,0,4.471,4.471,0,0,0,.055.645H21.29v-1.47l1.432-.477.094-.325a5.78,5.78,0,0,1,.479-1.164l.163-.3-.674-1.348,1.167-1.167Zm3.087,2.993a1.938,1.938,0,0,0-1.935,1.935,1.914,1.914,0,0,0,.119.645H25.233a3.226,3.226,0,1,1,6.308,0H30.2a1.914,1.914,0,0,0,.119-.645A1.938,1.938,0,0,0,28.387,29.032Zm.645,1.935a.645.645,0,1,1-.645-.645A.645.645,0,0,1,29.032,30.968ZM17.419,23.226a1.938,1.938,0,0,1,1.935-1.935h5.806v3.237L23.7,23.8l-2.483,2.483.792,1.583a7.174,7.174,0,0,0-.325.79L20,29.212v2.4H17.419ZM32.9,39.355H23.871V36.774H32.9Zm6.452-5.806a1.938,1.938,0,0,1-1.935,1.935H19.355a1.938,1.938,0,0,1-1.935-1.935V32.9H39.355Zm0-1.935H36.774v-2.4l-1.681-.561a7.049,7.049,0,0,0-.325-.79l.792-1.583L33.077,23.8l-1.464.732V21.29h5.806a1.938,1.938,0,0,1,1.935,1.935Z" fill="#12263f"/>
          <path id="Trazado_157128" data-name="Trazado 157128" d="M8.387,26.452h1.29v1.29H8.387Z" fill="#12263f"/>
          <path id="Trazado_157129" data-name="Trazado 157129" d="M5.806,26.452H7.1v1.29H5.806Z" fill="#12263f"/>
          <path id="Trazado_157130" data-name="Trazado 157130" d="M3.226,26.452h1.29v1.29H3.226Z" fill="#12263f"/>
          <path id="Trazado_157131" data-name="Trazado 157131" d="M8.387,31.613h1.29V32.9H8.387Z" fill="#12263f"/>
          <path id="Trazado_157132" data-name="Trazado 157132" d="M10.968,31.613h1.29V32.9h-1.29Z" fill="#12263f"/>
          <path id="Trazado_157133" data-name="Trazado 157133" d="M5.806,31.613H7.1V32.9H5.806Z" fill="#12263f"/>
          <path id="Trazado_157134" data-name="Trazado 157134" d="M3.226,36.774h1.29v1.29H3.226Z" fill="#12263f"/>
          <path id="Trazado_157135" data-name="Trazado 157135" d="M8.387,36.774h1.29v1.29H8.387Z" fill="#12263f"/>
          <path id="Trazado_157136" data-name="Trazado 157136" d="M5.806,36.774H7.1v1.29H5.806Z" fill="#12263f"/>
          <path id="Trazado_157137" data-name="Trazado 157137" d="M9.174,8.9l1.265.257A5.811,5.811,0,0,1,18.452,5l.516-1.183a7.042,7.042,0,0,0-2.839-.591A7.116,7.116,0,0,0,9.174,8.9Z" fill="#12263f"/>
          <path id="Trazado_157138" data-name="Trazado 157138" d="M4.516,12.9H3.226a3.229,3.229,0,0,0,3.226,3.226h1.29v-1.29H6.452A1.938,1.938,0,0,1,4.516,12.9Z" fill="#12263f"/>
          <path id="Trazado_157139" data-name="Trazado 157139" d="M9.032,14.839h1.29v1.29H9.032Z" fill="#12263f"/>
        </g>
      </g>
      <g id="Enmascarar_grupo_197" data-name="Enmascarar grupo 197" clip-path="url(#clip-path-2)">
        <g id="seguridad-informatica" transform="translate(674 1984)">
          <path id="Trazado_157164" data-name="Trazado 157164" d="M39.333,28h-.667V7.333A3.337,3.337,0,0,0,35.333,4V3.333A3.337,3.337,0,0,0,32,0H12A3.337,3.337,0,0,0,8.667,3.333V4A3.337,3.337,0,0,0,5.333,7.333v8H6.667v-8a2,2,0,0,1,2-2v9.333H10V3.333a2,2,0,0,1,2-2H32a2,2,0,0,1,2,2V26h1.333V5.333a2,2,0,0,1,2,2V28H28a2.92,2.92,0,0,0-2.078.862,1.6,1.6,0,0,1-1.142.471H21.333v1.333H24.78a2.928,2.928,0,0,0,2.085-.862A1.6,1.6,0,0,1,28,29.333H38.667v1.333A1.335,1.335,0,0,1,37.333,32h-16v1.333h16A2.67,2.67,0,0,0,40,30.667v-2A.667.667,0,0,0,39.333,28Z" fill="#fff"/>
          <path id="Trazado_157165" data-name="Trazado 157165" d="M8.667,21.333H10V26H8.667Z" fill="#fff"/>
          <path id="Trazado_157166" data-name="Trazado 157166" d="M12,2.667h1.333V4H12Z" fill="#fff"/>
          <path id="Trazado_157167" data-name="Trazado 157167" d="M14.666,2.667H16V4H14.666Z" fill="#fff"/>
          <path id="Trazado_157168" data-name="Trazado 157168" d="M17.333,2.667h1.333V4H17.333Z" fill="#fff"/>
          <path id="Trazado_157169" data-name="Trazado 157169" d="M12,5.333H32V6.667H12Z" fill="#fff"/>
          <path id="Trazado_157170" data-name="Trazado 157170" d="M19.96,25.068c-.141-.036-.283-.077-.423-.122l-.408,1.27c.164.053.331.1.494.143a9.332,9.332,0,1,0-5.484-14.052,9.214,9.214,0,0,0-1.223,2.874l1.3.307a7.879,7.879,0,0,1,.86-2.153h2.062a17.031,17.031,0,0,0-.469,4c0,.462.019.928.055,1.386l1.329-.106c-.016-.2-.028-.408-.037-.614h3.319v4h-2v1.333h2V25.3a7.983,7.983,0,0,1-1.374-.236Zm7.325-1.734a8.031,8.031,0,0,1-1.517,1.054c.168-.341.323-.692.464-1.054ZM28.494,22H26.682a16.769,16.769,0,0,0,.637-4h2.653a7.859,7.859,0,0,1-1.479,4ZM20.2,9.539a7.961,7.961,0,0,1,1.132-.176V12H18.939A11.789,11.789,0,0,1,20.2,9.539Zm2.466-.176a7.972,7.972,0,0,1,1.132.176A11.786,11.786,0,0,1,25.061,12H22.667Zm2.822,3.97a15.509,15.509,0,0,1,.5,3.333H22.667V13.333Zm4.483,3.333H27.321a16.919,16.919,0,0,0-.457-3.333h2.062a7.923,7.923,0,0,1,1.045,3.333ZM27.96,12H26.477a14.318,14.318,0,0,0-.716-1.73,7.925,7.925,0,0,1,2.2,1.73Zm-9.721-1.73A14.33,14.33,0,0,0,17.523,12H16.04A7.924,7.924,0,0,1,18.238,10.27Zm-.224,6.4a15.5,15.5,0,0,1,.5-3.333h2.822v3.333ZM22.667,18h3.319a15.272,15.272,0,0,1-.7,4H22.667Zm2.121,5.333a11.118,11.118,0,0,1-.987,1.794,7.949,7.949,0,0,1-1.134.177v-1.97Z" fill="#fff"/>
          <path id="Trazado_157171" data-name="Trazado 157171" d="M18,27.347V24A8,8,0,0,0,2,24v3.347a2.245,2.245,0,0,0-2,2.228v8.183A2.244,2.244,0,0,0,2.242,40H17.758A2.244,2.244,0,0,0,20,37.758V29.575a2.245,2.245,0,0,0-2-2.228ZM10,17.333A6.674,6.674,0,0,1,16.667,24v3.333H15.333V24A5.333,5.333,0,0,0,4.667,24v3.333H3.333V24A6.674,6.674,0,0,1,10,17.333Zm4,10H6V24a4,4,0,0,1,8,0Zm4.667,10.425a.909.909,0,0,1-.908.908H2.242a.909.909,0,0,1-.908-.908V29.575a.909.909,0,0,1,.908-.908H17.758a.909.909,0,0,1,.908.908Z" fill="#fff"/>
          <path id="Trazado_157172" data-name="Trazado 157172" d="M10,31.333a2,2,0,0,0-.667,3.885v1.448h1.333V35.219A2,2,0,0,0,10,31.333ZM10,34a.667.667,0,1,1,.667-.667A.667.667,0,0,1,10,34Z" fill="#fff"/>
        </g>
      </g>
      <g id="Enmascarar_grupo_196" data-name="Enmascarar grupo 196" clip-path="url(#clip-path-3)">
        <g id="copia-de-seguridad" transform="translate(896 1767)">
          <path id="Trazado_157140" data-name="Trazado 157140" d="M39.355,12.9a7.1,7.1,0,0,1-5.05-2.092l-.945-.944a.644.644,0,0,0-.912,0l-.945.944a7.1,7.1,0,0,1-5.05,2.092.645.645,0,0,0-.645.645v5.291a10.3,10.3,0,0,0,2.685,6.944l3.935,4.328a.646.646,0,0,0,.955,0l3.935-4.328A10.3,10.3,0,0,0,40,18.839V13.548A.645.645,0,0,0,39.355,12.9Zm-.645,5.936a9.009,9.009,0,0,1-2.35,6.075l-3.457,3.8-3.457-3.8a9.01,9.01,0,0,1-2.35-6.075V14.17a8.368,8.368,0,0,0,5.318-2.446l.489-.489.489.488a8.368,8.368,0,0,0,5.318,2.446Zm0,0" fill="#fff"/>
          <path id="Trazado_157141" data-name="Trazado 157141" d="M30.968,18.064v.645h-.645a.645.645,0,0,0-.645.645v3.871a.645.645,0,0,0,.645.645h5.161a.645.645,0,0,0,.645-.645V19.355a.645.645,0,0,0-.645-.645h-.645v-.645a1.935,1.935,0,1,0-3.871,0Zm3.871,4.516H30.968V20h3.871Zm-1.29-4.516v.645h-1.29v-.645a.645.645,0,1,1,1.29,0Zm0,0" fill="#fff"/>
          <path id="Trazado_157142" data-name="Trazado 157142" d="M2.581,36.129H7.742v1.29H2.581Zm0,0" fill="#fff"/>
          <path id="Trazado_157143" data-name="Trazado 157143" d="M18.064,36.129h1.29v1.29h-1.29Zm0,0" fill="#fff"/>
          <path id="Trazado_157144" data-name="Trazado 157144" d="M15.484,36.129h1.29v1.29h-1.29Zm0,0" fill="#fff"/>
          <path id="Trazado_157145" data-name="Trazado 157145" d="M12.9,36.129h1.29v1.29H12.9Zm0,0" fill="#fff"/>
          <path id="Trazado_157146" data-name="Trazado 157146" d="M21.29,28.387H.645A.645.645,0,0,0,0,29.032V39.355A.645.645,0,0,0,.645,40H21.29a.645.645,0,0,0,.645-.645V29.032A.645.645,0,0,0,21.29,28.387Zm-20,1.29H20.645v3.871H1.29ZM20.645,38.71H1.29V34.839H20.645Zm0,0" fill="#fff"/>
          <path id="Trazado_157147" data-name="Trazado 157147" d="M2.581,30.968H7.742v1.29H2.581Zm0,0" fill="#fff"/>
          <path id="Trazado_157148" data-name="Trazado 157148" d="M18.064,30.968h1.29v1.29h-1.29Zm0,0" fill="#fff"/>
          <path id="Trazado_157149" data-name="Trazado 157149" d="M15.484,30.968h1.29v1.29h-1.29Zm0,0" fill="#fff"/>
          <path id="Trazado_157150" data-name="Trazado 157150" d="M12.9,30.968h1.29v1.29H12.9Zm0,0" fill="#fff"/>
          <path id="Trazado_157151" data-name="Trazado 157151" d="M2.581,7.742H7.742v1.29H2.581Zm0,0" fill="#fff"/>
          <path id="Trazado_157152" data-name="Trazado 157152" d="M18.064,7.742h1.29v1.29h-1.29Zm0,0" fill="#fff"/>
          <path id="Trazado_157153" data-name="Trazado 157153" d="M15.484,7.742h1.29v1.29h-1.29Zm0,0" fill="#fff"/>
          <path id="Trazado_157154" data-name="Trazado 157154" d="M12.9,7.742h1.29v1.29H12.9Zm0,0" fill="#fff"/>
          <path id="Trazado_157155" data-name="Trazado 157155" d="M21.29,0H.645A.645.645,0,0,0,0,.645V10.968a.645.645,0,0,0,.645.645H21.29a.645.645,0,0,0,.645-.645V.645A.645.645,0,0,0,21.29,0Zm-20,1.29H20.645V5.161H1.29Zm19.355,9.032H1.29V6.452H20.645Zm0,0" fill="#fff"/>
          <path id="Trazado_157156" data-name="Trazado 157156" d="M2.581,2.581H7.742v1.29H2.581Zm0,0" fill="#fff"/>
          <path id="Trazado_157157" data-name="Trazado 157157" d="M18.064,2.581h1.29v1.29h-1.29Zm0,0" fill="#fff"/>
          <path id="Trazado_157158" data-name="Trazado 157158" d="M15.484,2.581h1.29v1.29h-1.29Zm0,0" fill="#fff"/>
          <path id="Trazado_157159" data-name="Trazado 157159" d="M12.9,2.581h1.29v1.29H12.9Zm0,0" fill="#fff"/>
          <path id="Trazado_157160" data-name="Trazado 157160" d="M3.871,27.1H6.452a.645.645,0,0,0,.645-.645v-7.1H9.677a.646.646,0,0,0,.486-1.07L5.647,13.123a.667.667,0,0,0-.972,0L.159,18.284a.646.646,0,0,0,.486,1.07H3.226v7.1a.645.645,0,0,0,.645.645Zm-1.8-9.032,3.094-3.536,3.094,3.536h-1.8a.645.645,0,0,0-.645.645v7.1H4.516v-7.1a.645.645,0,0,0-.645-.645Zm0,0" fill="#fff"/>
          <path id="Trazado_157161" data-name="Trazado 157161" d="M18.064,12.9H15.484a.645.645,0,0,0-.645.645v7.1H12.258a.646.646,0,0,0-.486,1.07l4.516,5.161a.647.647,0,0,0,.972,0l4.516-5.161a.646.646,0,0,0-.486-1.07H18.71v-7.1A.645.645,0,0,0,18.064,12.9Zm1.8,9.032-3.094,3.536L13.68,21.935h1.8a.645.645,0,0,0,.645-.645v-7.1h1.29v7.1a.645.645,0,0,0,.645.645Zm0,0" fill="#fff"/>
          <path id="Trazado_157162" data-name="Trazado 157162" d="M32.258,8.387h1.29V1.935A.645.645,0,0,0,32.9,1.29H23.226v1.29h9.032Zm0,0" fill="#fff"/>
          <path id="Trazado_157163" data-name="Trazado 157163" d="M32.258,37.419H23.226v1.29H32.9a.645.645,0,0,0,.645-.645V31.613h-1.29Zm0,0" fill="#fff"/>
        </g>
      </g>
      <g id="Enmascarar_grupo_198" data-name="Enmascarar grupo 198" clip-path="url(#clip-path-4)">
        <g id="contrasena" transform="translate(894.577 1982.577)">
          <path id="Trazado_157173" data-name="Trazado 157173" d="M38.159,5.1H4.686A3.267,3.267,0,0,0,1.423,8.368V34.142a3.6,3.6,0,0,0,3.6,3.6h32.8a3.6,3.6,0,0,0,3.6-3.6V8.368A3.267,3.267,0,0,0,38.159,5.1Zm2.092,3.264v3.911H17.7l2.839-6H38.159a2.094,2.094,0,0,1,2.092,2.092ZM4.686,6.276H19.247l-2.84,6H2.594V8.368A2.094,2.094,0,0,1,4.686,6.276ZM37.824,36.569H5.021a2.429,2.429,0,0,1-2.427-2.427V13.45H40.251V34.142a2.429,2.429,0,0,1-2.427,2.427Z" fill="#12263f"/>
          <path id="Trazado_157174" data-name="Trazado 157174" d="M7.22,11.2A1.925,1.925,0,1,0,5.3,9.277,1.925,1.925,0,0,0,7.22,11.2Zm0-2.678a.753.753,0,1,1-.753.753.753.753,0,0,1,.753-.753Z" fill="#12263f"/>
          <path id="Trazado_157175" data-name="Trazado 157175" d="M12.594,11.2A1.925,1.925,0,1,0,10.67,9.277,1.925,1.925,0,0,0,12.594,11.2Zm0-2.678a.753.753,0,1,1-.753.753A.753.753,0,0,1,12.594,8.524Z" fill="#12263f"/>
          <path id="Trazado_157176" data-name="Trazado 157176" d="M22.6,9.863H37.579a.586.586,0,0,0,0-1.172H22.6a.586.586,0,0,0,0,1.172Z" fill="#12263f"/>
          <path id="Trazado_157177" data-name="Trazado 157177" d="M32.8,26.611H10.042a.586.586,0,0,0-.586.586v6.695a.586.586,0,0,0,.586.586H32.8a.586.586,0,0,0,.586-.586V27.2A.586.586,0,0,0,32.8,26.611Zm-.586,6.695H10.628V27.782h21.59Z" fill="#12263f"/>
          <path id="Trazado_157178" data-name="Trazado 157178" d="M13.088,31.791a.586.586,0,0,0,.814.153l.424-.289v.229a.586.586,0,1,0,1.172,0v-.229l.423.289a.586.586,0,1,0,.661-.967l-.631-.431.631-.432a.586.586,0,1,0-.661-.967l-.423.289v-.229a.586.586,0,0,0-1.172,0v.229l-.422-.289a.586.586,0,0,0-.661.967l.631.432-.631.431a.586.586,0,0,0-.155.814Z" fill="#12263f"/>
          <path id="Trazado_157179" data-name="Trazado 157179" d="M19.6,31.791a.586.586,0,0,0,.814.153l.422-.289v.229a.586.586,0,1,0,1.172,0v-.229l.422.289a.586.586,0,0,0,.661-.967l-.632-.431.632-.432a.586.586,0,0,0-.661-.967l-.422.289v-.229a.586.586,0,0,0-1.172,0v.229l-.422-.289a.586.586,0,1,0-.661.967l.632.432-.632.431A.586.586,0,0,0,19.6,31.791Z" fill="#12263f"/>
          <path id="Trazado_157180" data-name="Trazado 157180" d="M26.111,31.791a.586.586,0,0,0,.814.153l.422-.289v.229a.586.586,0,1,0,1.172,0v-.229l.422.289a.586.586,0,1,0,.661-.967l-.631-.431.631-.432a.586.586,0,1,0-.661-.967l-.422.289v-.229a.586.586,0,0,0-1.172,0v.229l-.423-.289a.586.586,0,0,0-.661.967l.631.432-.631.431A.586.586,0,0,0,26.111,31.791Z" fill="#12263f"/>
          <path id="Trazado_157181" data-name="Trazado 157181" d="M19.994,25.138h2.858a2.757,2.757,0,0,0,2.755-2.753v-2.4a.586.586,0,0,0-.586-.586H24.3v-.868a2.882,2.882,0,1,0-5.764,0V19.4h-.715a.586.586,0,0,0-.586.586v2.4a2.757,2.757,0,0,0,2.754,2.753Zm-.282-6.611a1.71,1.71,0,0,1,3.421,0V19.4H19.712Zm-1.3,2.04h6.025v1.818a1.584,1.584,0,0,1-1.584,1.582H19.994a1.584,1.584,0,0,1-1.584-1.581Z" fill="#12263f"/>
        </g>
      </g>
      <path id="Trazado_157122" data-name="Trazado 157122" d="M3557.353,949.161l-.089,13.374a3.26,3.26,0,1,1-6.52-.043l.089-13.4a7.928,7.928,0,1,1,6.521.073Z" transform="translate(-2753.88 924.226)" fill="#373660"/>
    </g>
  </g>
</svg>
